<?xml version="1.0" encoding="UTF-8"?>
<svg width="24px" height="24px" viewBox="0 0 24 24" version="1.1" xmlns="http://www.w3.org/2000/svg" xmlns:xlink="http://www.w3.org/1999/xlink">
    <!-- Generator: Sketch 54.1 (76490) - https://sketchapp.com -->
    <title>Atoms/icons/facebook</title>
    <desc>Created with Sketch.</desc>
    <defs>
        <path d="M23,21.9 C23,22.5061 22.5061,23 21.9,23 L15.3,23 L15.3,15.3 L18.6,15.3 C18.8695,15.3 19.0983,15.1053 19.1423,14.8402 L19.6923,11.5402 C19.7198,11.3807 19.6747,11.2179 19.5691,11.0947 C19.4657,10.9704 19.3117,10.9 19.15,10.9 L15.3,10.9 L15.3,9.25 C15.3,8.9464 15.5464,8.7 15.85,8.7 L19.15,8.7 C19.4536,8.7 19.7,8.4536 19.7,8.15 L19.7,4.85 C19.7,4.5464 19.4536,4.3 19.15,4.3 L15.85,4.3 C13.1209,4.3 10.9,6.5209 10.9,9.25 L10.9,10.9 L9.2731,10.9 C8.9695,10.9 8.7231,11.1464 8.7231,11.45 L8.7231,14.75 C8.7231,15.0536 8.9695,15.3 9.2731,15.3 L10.9,15.3 L10.9,23 L2.1,23 C1.4939,23 1,22.5061 1,21.9 L1,2.1 C1,1.4939 1.4939,1 2.1,1 L21.9,1 C22.5061,1 23,1.4939 23,2.1 L23,21.9 Z M21.8181818,0 L2.18181818,0 C0.978545455,0 0,0.978545455 0,2.18181818 L0,21.8181818 C0,23.0214545 0.978545455,24 2.18181818,24 L11.4545455,24 C11.7556364,24 12,23.7556364 12,23.4545455 L12,14.7272727 C12,14.4261818 11.7556364,14.1818182 11.4545455,14.1818182 L9.84109091,14.1818182 L9.84109091,12 L11.4545455,12 C11.7556364,12 12,11.7556364 12,11.4545455 L12,9.27272727 C12,7.16727273 13.7127273,5.45454545 15.8181818,5.45454545 L18.5454545,5.45454545 L18.5454545,7.63636364 L15.8181818,7.63636364 C14.916,7.63636364 14.1818182,8.37054545 14.1818182,9.27272727 L14.1818182,11.4545455 C14.1818182,11.7556364 14.4261818,12 14.7272727,12 L18.4472727,12 L18.084,14.1818182 L14.7272727,14.1818182 C14.4261818,14.1818182 14.1818182,14.4261818 14.1818182,14.7272727 L14.1818182,23.4545455 C14.1818182,23.7556364 14.4261818,24 14.7272727,24 L21.8181818,24 C23.0214545,24 24,23.0214545 24,21.8181818 L24,2.18181818 C24,0.978545455 23.0214545,0 21.8181818,0 L21.8181818,0 Z" id="path-1"></path>
    </defs>
    <g id="Atoms/icons/facebook" stroke="none" stroke-width="1" fill="none" fill-rule="evenodd">
        <mask id="mask-2" fill="white">
            <use xlink:href="#path-1"></use>
        </mask>
        <use id="facebook" fill="#9B9B9B" xlink:href="#path-1"></use>
    </g>
</svg>