<?xml version="1.0" encoding="utf-8"?>
<!-- Generator: Adobe Illustrator 22.0.1, SVG Export Plug-In . SVG Version: 6.00 Build 0)  -->
<svg version="1.1" id="Layer_1" xmlns="http://www.w3.org/2000/svg" xmlns:xlink="http://www.w3.org/1999/xlink" x="0px" y="0px"
	 viewBox="0 0 44.1 43.5" style="enable-background:new 0 0 44.1 43.5;" xml:space="preserve">
<style type="text/css">
	.st0{fill:#253879;}
	.st1{fill:#1E98D5;}
	.st2{fill:#252F5F;}
</style>
<g>
	<path class="st0" d="M25.9,0c0.4,0.1,0.7,0.1,1.1,0.1c1.4,0.2,2.8,0.5,4,1.3c1.2,0.9,1.9,2,2.1,3.5c0.1,0.7,0,1.5-0.1,2.2
		c0,0,0,0,0,0c0,0-0.1,0-0.1,0c-0.7-0.3-1.4-0.5-2.2-0.7c-0.6-0.1-1.2-0.2-1.9-0.2c-2.5,0-4.9,0-7.4,0c-0.5,0-1,0.4-1.1,0.7
		c-0.1,0.4-0.2,0.9-0.2,1.3c-0.1,0.7-0.2,1.3-0.3,2c-0.1,0.8-0.3,1.7-0.4,2.5c-0.1,0.7-0.2,1.4-0.3,2c-0.1,0.5-0.3,1.1-0.2,1.6l0,0
		c0,0-0.1,0-0.1,0.1c0,0,0,0,0,0c-0.1,0.4-0.2,0.8-0.2,1.2c-0.2,1.3-0.4,2.6-0.6,4c-0.2,1.2-0.4,2.5-0.6,3.7c0,0,0,0,0,0
		c-0.1-0.1-0.1,0-0.2,0c-1.7,0-3.4,0-5.1,0c-0.1,0-0.1,0-0.2,0c-0.4-0.1-0.6-0.3-0.6-0.7c0-0.5,0.1-0.9,0.2-1.4
		c0.2-1.3,0.4-2.5,0.6-3.8c0.2-1.1,0.3-2.1,0.5-3.2c0.2-1,0.3-2,0.5-2.9c0.2-1.2,0.4-2.3,0.5-3.5c0.2-1,0.3-2,0.5-3
		C14.1,6,14.2,5,14.4,4.1c0.2-1,0.3-2,0.5-2.9c0.1-0.5,0.4-0.9,0.9-1.1c0,0,0.1,0,0.1-0.1C19.2,0,22.5,0,25.9,0z"/>
	<path class="st0" d="M0,40.8c0.1-0.3,0.2-0.7,0.2-1.1c0.2-1,0.3-2,0.5-2.9c0.2-1.1,0.3-2.2,0.5-3.3c0.1-0.5,0.1-0.9,0.2-1.4
		c0-0.2,0.2-0.4,0.4-0.4c1.3,0,2.7,0,4,0c0.7,0,1.3,0.2,1.8,0.7c0.4,0.4,0.6,0.8,0.6,1.4c0.1,1-0.1,2-0.7,2.8
		C7,37.5,6.1,37.9,5.1,38c-0.6,0.1-1.2,0-1.8,0c-0.3,0-0.5,0.1-0.6,0.5c-0.1,0.7-0.2,1.5-0.3,2.2c-0.1,0.4-0.2,0.5-0.6,0.5
		c-0.4,0-0.9,0-1.3,0c-0.2,0-0.4,0-0.5-0.2C0,41,0,40.9,0,40.8z M3.8,36.2C3.8,36.2,3.8,36.2,3.8,36.2c0.2,0,0.3,0,0.5,0
		c0.8-0.1,1.3-0.5,1.4-1.3c0.1-0.7-0.2-1.1-0.8-1.2c-0.4-0.1-0.8,0-1.2,0c-0.2,0-0.2,0.1-0.2,0.3c-0.1,0.7-0.2,1.4-0.3,2.1
		c0,0.2,0,0.2,0.2,0.2C3.5,36.2,3.7,36.2,3.8,36.2z"/>
	<path class="st1" d="M32.9,7.2C32.9,7.2,33,7.2,32.9,7.2c0,0,0.1,0.1,0.2,0.1c1.3,0.7,2,1.9,2.2,3.3c0.3,2.5-0.3,4.7-1.7,6.8
		c-1,1.5-2.5,2.4-4.3,2.8c-1.2,0.3-2.5,0.4-3.8,0.4c-0.5,0-0.8,0.2-1.1,0.6c-0.1,0.2-0.1,0.3-0.1,0.5c-0.2,1.5-0.5,3-0.7,4.6
		c-0.1,0.4-0.1,0.9-0.2,1.3c-0.1,0.5-0.5,0.9-1.1,0.9c-1.5,0-3.1,0-4.6,0c-0.4,0-0.7-0.3-0.7-0.7c0.1-0.6,0.2-1.3,0.3-1.9
		c0-0.2,0.1-0.3,0.1-0.5c0.2-1.2,0.4-2.5,0.6-3.7c0.2-1.3,0.4-2.6,0.6-4c0.1-0.4,0.1-0.8,0.2-1.2c0,0,0-0.1,0-0.1c0,0,0,0,0,0
		c0,0,0,0,0.1,0c0.3-0.4,0.7-0.6,1.2-0.6c0.9,0,1.7,0,2.6,0c1.2,0,2.4-0.1,3.6-0.4c1.8-0.5,3.4-1.4,4.6-3c0.9-1.2,1.5-2.5,1.8-4
		C32.8,8.1,32.9,7.7,32.9,7.2z"/>
	<path class="st1" d="M28.3,31.8c0.6,0,1.3,0,1.9,0c0.5,0,0.9,0.1,1.4,0.3c0.8,0.4,1.2,1.1,1.2,2c0,0.7-0.1,1.3-0.4,1.9
		c-0.5,1.2-1.5,1.8-2.8,2c-0.6,0.1-1.2,0-1.8,0c-0.4,0-0.5,0.2-0.6,0.5c-0.1,0.8-0.2,1.6-0.4,2.3c0,0.2-0.1,0.3-0.3,0.3
		c-0.6,0-1.1,0-1.7,0c-0.2,0-0.3-0.1-0.3-0.4c0.3-2.1,0.7-4.1,1-6.2c0.1-0.8,0.2-1.6,0.4-2.4c0.1-0.4,0.2-0.5,0.6-0.5
		C27.1,31.8,27.7,31.8,28.3,31.8C28.3,31.8,28.3,31.8,28.3,31.8z M28.3,36.2c0.3,0,0.6,0,0.9-0.1c0.8-0.2,1.1-0.9,1-1.6
		c0-0.5-0.3-0.7-0.7-0.8c-0.4-0.1-0.8,0-1.3,0c-0.1,0-0.2,0.1-0.2,0.2c-0.1,0.7-0.2,1.3-0.3,2c0,0.3,0,0.3,0.3,0.3
		C28.1,36.2,28.2,36.2,28.3,36.2z"/>
	<path class="st1" d="M38,35.6c0.1-0.1,0.1-0.3,0.1-0.4c0-0.2,0.1-0.2,0.3-0.2c0.6,0,1.1,0,1.7,0c0.2,0,0.3,0.1,0.3,0.3
		c-0.3,1.7-0.5,3.4-0.8,5.1c0,0.2,0,0.4-0.1,0.6c-0.1,0.2-0.2,0.3-0.4,0.3c-0.5,0-1,0-1.5,0c-0.2,0-0.3-0.1-0.3-0.4
		c0-0.1,0-0.2,0-0.3c-0.1,0-0.2,0.1-0.2,0.1c-1,0.8-2.2,0.9-3.3,0.4c-0.9-0.4-1.3-1.2-1.4-2.1c-0.1-1.2,0.2-2.2,1-3.1
		c0.6-0.7,1.5-1.1,2.4-1.2c0.4,0,0.7,0,1.1,0.1C37.3,34.9,37.7,35.1,38,35.6z M36.3,36.5c-0.1,0-0.3,0-0.4,0c-0.8,0.2-1.4,1-1.3,1.9
		c0,0.6,0.4,1.1,1,1.2c1,0.2,1.9-0.4,2.2-1.4C37.9,37.3,37.4,36.5,36.3,36.5z"/>
	<path class="st0" d="M13.6,35.6c0-0.1,0-0.2,0.1-0.4c0-0.2,0.1-0.3,0.3-0.3c0.5,0,1,0,1.5,0c0.3,0,0.4,0.1,0.3,0.4
		c-0.1,0.7-0.2,1.3-0.3,2c-0.2,1.1-0.3,2.2-0.5,3.2c0,0.1,0,0.2,0,0.3c0,0.3-0.2,0.4-0.5,0.4c-0.5,0-0.9,0-1.4,0
		c-0.2,0-0.3-0.1-0.3-0.3c0-0.1,0-0.2,0-0.4c-0.1,0.1-0.2,0.2-0.3,0.2c-1,0.8-2.5,0.9-3.5,0.3c-0.7-0.4-1-1-1.1-1.7
		c-0.3-1.7,0.6-3.6,2.3-4.3c0.8-0.3,1.7-0.3,2.6-0.1C13.1,35.1,13.3,35.3,13.6,35.6C13.5,35.6,13.5,35.6,13.6,35.6z M11.4,39.7
		c0.8,0.1,1.7-0.6,1.8-1.5c0.1-0.6-0.1-1.2-0.6-1.5c-0.3-0.2-0.7-0.2-1.1-0.2c-1,0.1-1.8,1.2-1.5,2.4C10.3,39.4,10.7,39.7,11.4,39.7
		z"/>
	<path class="st0" d="M20,38.4c0.3-0.4,0.5-0.7,0.8-1.1c0.5-0.7,1-1.4,1.5-2.2c0.1-0.2,0.3-0.2,0.5-0.2c0.5,0,1,0,1.5,0
		c0.1,0,0.3,0,0.4,0.1c0.1,0.2,0,0.3-0.1,0.4c-0.9,1.3-1.8,2.7-2.8,4c-0.9,1.2-1.7,2.5-2.6,3.7c-0.1,0.2-0.3,0.3-0.5,0.3
		c-0.5,0-1,0-1.5,0c-0.1,0-0.3,0-0.3-0.1c-0.1-0.1,0-0.3,0.1-0.4c0.5-0.7,0.9-1.3,1.4-2c0.2-0.3,0.2-0.5,0.1-0.8
		c-0.6-1.6-1.1-3.2-1.6-4.8c-0.1-0.3,0-0.5,0.3-0.5c0.5,0,1,0,1.4,0c0.3,0,0.5,0.1,0.6,0.4c0.3,1,0.6,1.9,0.9,2.9
		C19.9,38.3,19.9,38.4,20,38.4z"/>
	<path class="st1" d="M41.5,41.3c-0.2,0-0.4,0-0.7,0c-0.3,0-0.4-0.1-0.3-0.4c0.3-2,0.6-4,0.9-6.1c0.1-0.9,0.3-1.9,0.4-2.8
		c0-0.2,0.1-0.3,0.3-0.3c0.5,0,1,0,1.5,0c0.2,0,0.3,0.1,0.3,0.3c-0.1,0.5-0.1,0.9-0.2,1.4c-0.2,1.3-0.4,2.6-0.6,3.8
		c-0.2,1.1-0.4,2.3-0.5,3.4c-0.1,0.4-0.2,0.5-0.6,0.5C41.9,41.3,41.7,41.3,41.5,41.3z"/>
	<path class="st2" d="M11.8,25.4c0.1-0.1,0.1,0,0.2,0c1.7,0,3.4,0,5.1,0c0.1,0,0.1,0,0.2,0C15.5,25.4,13.6,25.4,11.8,25.4z"/>
	<path class="st2" d="M32.9,7.2c0,0.4-0.1,0.8-0.2,1.3c-0.3,1.4-0.9,2.8-1.8,4c-1.2,1.5-2.7,2.5-4.6,3c-1.2,0.3-2.4,0.4-3.6,0.4
		c-0.9,0-1.7,0-2.6,0c-0.5,0-0.9,0.2-1.2,0.6c0,0,0,0-0.1,0c0-0.6,0.1-1.1,0.2-1.6c0.1-0.7,0.2-1.4,0.3-2c0.1-0.8,0.3-1.7,0.4-2.5
		c0.1-0.7,0.2-1.3,0.3-2c0.1-0.4,0.1-0.9,0.2-1.3c0.1-0.4,0.6-0.7,1.1-0.7c2.5,0,4.9,0,7.4,0c0.6,0,1.2,0.1,1.9,0.2
		c0.8,0.1,1.5,0.3,2.2,0.7C32.8,7.2,32.9,7.2,32.9,7.2z"/>
	<path class="st2" d="M18.8,16.5C18.8,16.6,18.8,16.6,18.8,16.5C18.8,16.6,18.8,16.6,18.8,16.5C18.8,16.6,18.8,16.5,18.8,16.5z"/>
</g>
</svg>
