<?xml version="1.0" encoding="utf-8"?>
<!-- Generator: Adobe Illustrator 22.0.1, SVG Export Plug-In . SVG Version: 6.00 Build 0)  -->
<svg version="1.1" id="Layer_1" xmlns="http://www.w3.org/2000/svg" xmlns:xlink="http://www.w3.org/1999/xlink" x="0px"
     y="0px"
     viewBox="0 0 41.3 37.3" style="enable-background:new 0 0 41.3 37.3;" xml:space="preserve">
<style type="text/css">
	.st0{fill:#2361A6;}
	.st1{fill:#CF3751;}
	.st2{fill:#FFFFFF;}
</style>
  <g id="rH7UNr_1_">
	<g>
		<path class="st0" d="M22.4,20.2c0.2-0.1,0.4-0.3,0.6-0.5c0.7-0.7,1.1-1.5,1.3-2.4c0.1-0.3,0.1-0.5,0.1-0.8c0-0.1,0-0.1,0.1-0.2
			c0.7-0.3,1.4-0.6,2.1-0.9c0,0,0,0,0.1,0c0,0.1,0,0.2,0,0.3c0.1,1.2,0,2.4-0.4,3.6c-0.4,1.1-0.9,2.1-1.8,2.9
			c-0.4,0.3-0.7,0.6-1.2,0.8c-0.1,0-0.1,0.1-0.1,0.2c0.3,0.9,0.5,1.8,0.8,2.6c0,0,0,0.1,0,0.1c0.1,0,0.1-0.1,0.2-0.1
			c1.1-0.6,1.9-1.5,2.5-2.5c0.6-1,1-2,1.2-3.1c0.2-0.9,0.3-1.9,0.4-2.8c0-0.9,0-1.7,0-2.6c0-0.2,0-0.3-0.1-0.5c0-0.1,0-0.2,0.1-0.2
			c0.6-0.3,1.2-0.6,1.8-0.9c0.2-0.1,0.4-0.2,0.5-0.3c0.1,0,0.1,0.1,0.1,0.1c0.3,1.2,0.4,2.3,0.3,3.5c-0.1,2.2-0.5,4.3-1.5,6.3
			c0,0-0.1,0.1,0,0.2c0.1-0.1,0.2-0.2,0.3-0.2c1.5-1.4,2.7-3,3.6-4.9c0.7-1.5,1.1-3.1,1.4-4.7c0.1-0.9,0.2-1.8,0.2-2.7
			c0-0.1,0-0.1,0.1-0.2c0.8-0.5,1.6-1.1,2.4-1.6c0,0,0,0,0.1,0c0,0.1,0,0.2,0,0.3c0.1,1,0,1.9,0,2.9c-0.1,1.4-0.3,2.7-0.7,4.1
			c-0.6,2.1-1.4,4-2.6,5.8c-1.5,2.2-3.4,3.9-5.7,5.3C27,27.9,25,28.7,23,29.2c-1,0.3-2,0.5-3,0.6c-1.3,0.2-2.7,0.3-4.1,0.2
			c-3.4-0.2-6.5-1.2-9.3-3.1c-2.5-1.7-4.5-3.9-6.1-6.4c-0.1-0.1-0.1-0.2-0.2-0.3c0,0,0.1,0,0.1,0c0.9,0,1.8-0.1,2.8-0.1
			c0.1,0,0.2,0,0.2,0.1c1,1.4,2.1,2.6,3.4,3.6c1.5,1.2,3.2,2.2,5.1,2.8c0.9,0.3,1.8,0.5,2.8,0.7c0,0,0.1,0,0.2,0
			c-3-1.8-5.2-4.2-6.5-7.5c0.3,0,0.7-0.1,1-0.1c0.5-0.1,1-0.1,1.5-0.2c0,0,0,0,0.1,0c0.2,0,0.2,0,0.3,0.2c1,1.8,2.2,3.5,3.8,4.8
			c1,0.8,2,1.5,3.2,1.9c0.9,0.3,1.8,0.5,2.7,0.5c0.1,0,0.3,0,0.4,0c0,0,0,0,0.1,0c0-0.1,0-0.2-0.1-0.2c-0.2-0.8-0.5-1.6-0.8-2.4
			c0-0.2,0-0.2-0.2-0.1c-1.9,0.2-3.5-0.4-5-1.6c-0.8-0.7-1.5-1.6-2.1-2.5c0-0.1-0.1-0.1-0.1-0.2c0.1-0.1,0.2-0.1,0.3-0.1
			c0.7-0.1,1.4-0.3,2.1-0.4c0.1,0,0.2,0,0.3,0.1c0.5,0.7,1.2,1.3,2.1,1.6c0.5,0.2,1,0.3,1.6,0.2c0.2,0,0.2,0,0.1-0.2
			c-0.3-0.9-0.6-1.9-0.9-2.8c-0.1-0.3-0.1-0.2,0.2-0.3c0.8-0.2,1.5-0.4,2.3-0.7c0.2-0.1,0.2-0.1,0.2,0.1c0.3,0.9,0.6,1.9,0.9,2.8
			C22.4,20.1,22.4,20.1,22.4,20.2z"/>
    <path class="st1" d="M9.5,6.7c-0.3,0.3-0.7,0.5-1,0.8c-1.5,1.4-2.8,2.9-3.8,4.7c-0.8,1.4-1.5,2.9-1.8,4.5
			c-0.1,0.2-0.1,0.5-0.1,0.7c0,0.1-0.1,0.1-0.2,0.1c-0.4,0-0.9,0-1.3,0c-0.4,0-0.8,0-1.2,0c-0.1,0-0.1,0-0.1-0.1
			c0.2-1.5,0.6-2.9,1.2-4.3c1.5-3.6,3.9-6.5,7-8.7c2.1-1.5,4.3-2.6,6.8-3.4c1.1-0.4,2.3-0.6,3.5-0.8C19.7,0.1,21,0,22.3,0
			c3.3,0.1,6.3,0.8,9.2,2.3c1.9,1,3.5,2.3,5,3.8c0,0,0.1,0.1,0.1,0.1c0,0.1-0.1,0.1-0.1,0.1c-0.7,0.5-1.3,0.9-2,1.4
			c0,0-0.1,0-0.1,0.1c-0.1,0-0.1,0-0.1,0c-0.1-0.1-0.2-0.2-0.2-0.3c-0.6-0.7-1.3-1.2-2.1-1.7c-1.6-1.1-3.4-1.8-5.3-2.4
			C25.4,3,24.2,2.8,23,2.6c-0.1,0-0.2,0-0.2,0c0,0,0,0,0,0c0,0,0,0,0,0c0,0,0,0,0.1,0c0,0.1,0.1,0.1,0.2,0.1c2,1,3.8,2.4,5.2,4.1
			c0.8,1,1.4,2,1.9,3.2c0,0,0,0,0,0.1c0.1,0.1,0.1,0.1-0.1,0.2c-0.7,0.4-1.4,0.8-2.2,1.1c-0.1,0.1-0.1,0.1-0.2-0.1
			c-0.9-1.8-2-3.4-3.4-4.7c-1.3-1.2-2.7-2.1-4.4-2.6c-0.8-0.2-1.5-0.4-2.3-0.4c0,0-0.1,0-0.1,0c0,0.1,0,0.2,0,0.2
			c0.4,1.3,0.8,2.6,1.2,3.9c0.7,2.2,1.3,4.3,2,6.5c0,0,0,0.1,0,0.1c0,0.1,0,0.1-0.1,0.1c0,0-0.1,0-0.1,0c-0.8,0.3-1.5,0.5-2.3,0.7
			c-0.2,0.1-0.2,0.1-0.3-0.1c-0.7-2.2-1.3-4.3-2-6.5c-0.4-1.3-0.8-2.6-1.2-3.9c0,0,0-0.1,0-0.1c-0.1,0-0.1,0.1-0.2,0.1
			c-0.6,0.4-1.2,1-1.7,1.6c-1,1.2-1.6,2.6-2,4c-0.3,1-0.4,2-0.5,3c-0.1,1,0,2,0.1,3c0,0.1,0,0.3,0,0.4c0,0.2,0,0.2-0.1,0.2
			c-0.2,0-0.5,0-0.7,0.1C9,17,8.4,17.1,7.9,17.1c-0.1,0-0.1,0-0.2-0.1c-0.1-0.5-0.1-0.9-0.2-1.4c-0.1-0.7-0.1-1.5,0-2.2
			C7.6,11.1,8.2,9,9.4,7.1C9.4,6.9,9.5,6.8,9.5,6.7C9.6,6.7,9.6,6.7,9.5,6.7C9.6,6.6,9.6,6.6,9.5,6.7C9.6,6.6,9.6,6.6,9.5,6.7
			C9.5,6.6,9.5,6.6,9.5,6.7z"/>
    <path class="st0" d="M38.6,34.1c0.9,0.9,1.8,1.9,2.7,2.8c-0.1,0-0.2,0-0.2,0c-1.2,0-2.4,0-3.6,0c-0.1,0-0.2,0-0.3-0.1
			c-0.6-0.7-1.1-1.4-1.7-2.1c-0.1-0.1-0.2-0.2-0.3-0.2c-0.5,0-0.9,0-1.4,0c-0.2,0-0.2,0-0.2,0.2c0,0.7,0,1.3,0,2
			c0,0.2,0,0.2-0.2,0.2c-1,0-2,0-2.9,0c0,0,0,0,0,0c-0.2,0-0.2,0-0.2-0.2c0-1.2,0-2.4,0-3.6c0-0.8,0-1.6,0-2.3c0,0,0-0.1,0-0.1
			c0-0.1,0-0.1,0.1-0.1c0,0,0.1,0,0.1,0c2.2,0,4.5,0,6.7,0c0.7,0,1.3,0.1,1.9,0.2c0.3,0.1,0.6,0.2,0.8,0.4c0.6,0.4,0.7,1.2,0.3,1.8
			c-0.2,0.3-0.5,0.5-0.8,0.7C39.2,33.8,38.9,34,38.6,34.1z M34.7,31.8c-0.3,0-0.6,0-0.8,0c-0.1,0-0.1,0-0.2,0.1c0,0.4,0,0.8,0,1.2
			c0,0.1,0,0.1,0.1,0.1c0.5,0,1.1,0,1.6,0c0.2,0,0.5,0,0.7-0.1c0.2,0,0.3-0.1,0.4-0.2c0.3-0.3,0.2-0.6-0.1-0.8
			c-0.1,0-0.1-0.1-0.2-0.1c-0.2-0.1-0.3-0.1-0.5-0.1C35.4,31.8,35.1,31.8,34.7,31.8z"/>
    <path class="st0" d="M0.4,36.7c0.3-0.2,0.7-0.5,1-0.7c0.1-0.1,0.3-0.2,0.4-0.3c0.1-0.1,0.2-0.1,0.2-0.1c0.8,0.1,1.7,0.3,2.5,0.3
			c0.6,0,1.3,0.1,1.9-0.1c0.1,0,0.3-0.1,0.4-0.1c0.1,0,0.1-0.1,0.2-0.1c0.1-0.1,0.1-0.3,0-0.4c-0.1-0.1-0.2-0.2-0.3-0.2
			c-0.3-0.1-0.6-0.3-0.9-0.3c-0.8-0.2-1.7-0.5-2.5-0.7c-0.3-0.1-0.6-0.2-0.9-0.3c-0.2-0.1-0.4-0.2-0.5-0.3c-0.5-0.5-0.5-1.2,0-1.6
			c0.3-0.3,0.8-0.4,1.2-0.6c0.6-0.2,1.2-0.3,1.8-0.3c1.1-0.1,2.3-0.1,3.4-0.1c0.6,0,1.2,0.1,1.8,0.2c0.5,0.1,1,0.1,1.6,0.2
			c0.1,0,0.1,0,0.2,0c0,0.1,0,0.1-0.1,0.1c-0.3,0.3-0.7,0.6-1,0.9c-0.1,0.1-0.1,0.1-0.2,0.1C10,32.1,9.4,32,8.8,32
			c-0.5,0-1.1-0.1-1.6,0c-0.1,0-0.3,0-0.4,0.1c-0.1,0-0.1,0.1-0.2,0.1c-0.1,0.1-0.1,0.2,0,0.3c0.1,0.1,0.2,0.2,0.4,0.2
			c0.4,0.2,0.8,0.3,1.2,0.4c0.7,0.2,1.4,0.4,2.1,0.6c0.4,0.1,0.8,0.3,1.2,0.5c0.2,0.1,0.4,0.2,0.5,0.4c0.3,0.3,0.3,0.7,0.1,1
			c-0.2,0.3-0.4,0.5-0.6,0.6c-0.4,0.3-0.9,0.5-1.4,0.6c-0.7,0.2-1.4,0.3-2.1,0.4c-1.1,0.1-2.2,0.1-3.4,0c-0.8,0-1.7-0.1-2.5-0.2
			c-0.5-0.1-1-0.1-1.5-0.2C0.5,36.8,0.5,36.8,0.4,36.7z"/>
    <path class="st0" d="M23.5,33.8c0.1,0,0.1,0,0.2,0c0.9,0,1.8,0,2.7,0c0.2,0,0.2,0,0.2,0.2c0.3,0.9,0.6,1.8,0.9,2.7
			c0,0.1,0,0.1,0,0.2c0,0-0.1,0-0.1,0c-0.9,0-1.9,0-2.8,0c-0.1,0-0.2,0-0.2-0.1c0-0.1-0.1-0.1-0.2-0.1c-0.4,0.1-0.8,0.2-1.2,0.3
			C22,37.1,21,37.1,20,37c-0.8-0.1-1.7-0.2-2.5-0.5c-0.6-0.2-1.1-0.4-1.6-0.7c-0.2-0.1-0.4-0.3-0.6-0.4c-1-0.9-0.9-2.3-0.1-3.1
			c0.3-0.3,0.6-0.5,1-0.7c0.7-0.3,1.4-0.6,2.1-0.7c0.9-0.2,1.8-0.3,2.7-0.4c0.9-0.1,1.8,0,2.8,0.1c0.5,0,1,0.1,1.5,0.2
			c0.1,0,0.1,0,0.1,0.1c0.1,0.4,0.3,0.8,0.4,1.2c-0.1,0-0.1,0-0.2,0c-0.6-0.1-1.2-0.1-1.8-0.2c-1.2-0.1-2.3-0.1-3.5,0.1
			c-0.5,0.1-0.9,0.3-1.3,0.6c-0.5,0.4-0.7,0.9-0.6,1.5c0,0.3,0.2,0.5,0.3,0.7c0.3,0.3,0.6,0.5,1,0.6c0.8,0.3,1.5,0.4,2.3,0.3
			c0.5,0,1-0.2,1.4-0.3c0.1,0,0.1-0.1,0.1-0.2c-0.1-0.4-0.2-0.8-0.4-1.2C23.5,34,23.4,33.9,23.5,33.8z"/>
    <path class="st1" d="M15.9,12.1c0,0.5-0.1,0.9-0.3,1.3c-0.4,0.7-1.1,0.9-1.7,0.8c-0.8-0.1-1.4-0.8-1.4-1.6c0-0.4,0.1-0.9,0.3-1.3
			c0.3-0.7,0.9-1,1.6-0.9c0.8,0.1,1.4,0.6,1.5,1.3C15.9,11.8,15.8,11.9,15.9,12.1z"/>
    <path class="st1" d="M20.3,9.5c0-0.6,0.3-1,0.8-1.3c0.2-0.1,0.4-0.2,0.7-0.3c0.4-0.1,0.8,0,1.1,0.2c0.5,0.4,0.9,0.9,1.1,1.5
			c0.2,0.9-0.4,1.9-1.4,2c-0.4,0-0.8,0-1.1-0.3c-0.5-0.4-0.9-0.9-1-1.6C20.3,9.7,20.3,9.6,20.3,9.5z"/>
    <path class="st0" d="M40.1,2.2c-0.6,0-1-0.4-1-1c0-0.5,0.5-1,1-1c0.5,0,1,0.5,1,1C41.2,1.6,40.7,2.2,40.1,2.2z M39.3,1.1
			c0,0.5,0.4,0.8,0.8,0.8C40.6,2,41,1.6,41,1.1c0-0.5-0.4-0.8-0.8-0.8C39.7,0.3,39.3,0.7,39.3,1.1z"/>
    <path class="st2" d="M22.8,2.6C22.7,2.6,22.7,2.6,22.8,2.6C22.7,2.6,22.7,2.6,22.8,2.6C22.7,2.6,22.7,2.6,22.8,2.6
			C22.7,2.6,22.8,2.6,22.8,2.6z"/>
    <path class="st0" d="M40.4,1.2c0.2,0.1,0.2,0.2,0.2,0.4c0,0.1,0,0.1-0.1,0.1c-0.1,0-0.2,0-0.2-0.1c0-0.1,0-0.1,0-0.2
			c0-0.1-0.1-0.1-0.1-0.1C40,1.2,40,1.2,40,1.4c0,0,0,0.1,0,0.1c0,0.1,0,0.1-0.1,0.1c-0.1,0-0.1,0-0.1-0.1c0-0.3,0-0.6,0-0.9
			c0-0.1,0-0.1,0.1-0.1c0.2,0,0.3,0,0.5,0c0.2,0,0.3,0.2,0.3,0.4C40.6,1,40.6,1.1,40.4,1.2z M40,0.9c0,0.2,0,0.2,0.1,0.2
			c0.2,0,0.2-0.1,0.3-0.2c0-0.1-0.1-0.2-0.3-0.2C40,0.8,40,0.8,40,0.9z"/>
	</g>
</g>
</svg>
