<?xml version="1.0" encoding="UTF-8"?>
<svg width="24px" height="24px" viewBox="0 0 24 24" version="1.1" xmlns="http://www.w3.org/2000/svg" xmlns:xlink="http://www.w3.org/1999/xlink">
    <!-- Generator: Sketch 54.1 (76490) - https://sketchapp.com -->
    <title>Atoms/icons/twitter</title>
    <desc>Created with Sketch.</desc>
    <defs>
        <path d="M20.8410079,7.789 C20.6860105,7.893 20.6010119,8.075 20.6220115,8.261 C20.9690057,11.37 19.6780273,14.988 17.2530677,17.702 C14.7791089,20.47 11.4921638,21.997 7.999222,22 L7.98322227,22 C6.1162534,22 4.36628258,21.671 2.68131067,21 C4.66027767,20.788 6.57324578,20.021 7.8372247,18.87 C7.9872222,18.732 8.04022132,18.516 7.96822252,18.325 C7.89622372,18.133 7.71622672,18.005 7.51123014,18 C5.96525591,17.965 4.45928103,17.097 3.50529693,15.757 C4.18228564,15.856 4.83427477,15.801 5.32526659,15.379 C5.47626407,15.249 5.53626307,15.043 5.47826403,14.853 C5.41926502,14.663 5.25326779,14.525 5.05527109,14.503 C4.50528026,14.441 2.18031903,13.351 1.62132835,11.021 C2.21731841,11.363 2.92930654,11.626 3.59929537,11.49 C3.80229198,11.449 3.95828938,11.287 3.9932888,11.083 C4.02728823,10.879 3.93228981,10.675 3.75529276,10.57 C2.84030802,10.028 1.20333532,7.802 2.11532011,5.411 C3.5852956,7.041 6.76824252,9.72 11.9731557,9.999 C12.136153,10.005 12.2831506,9.94 12.3841489,9.82 C12.4851472,9.699 12.5231466,9.537 12.4861472,9.383 C12.2421512,8.369 12.2821506,5.804 13.9931221,4.789 C14.9241065,4.236 15.674094,4 16.5000802,4 C17.655061,4 18.5700457,4.404 19.5610292,5.35 C19.6730273,5.456 19.8240248,5.506 19.9780223,5.483 C20.4700141,5.411 21.1490027,5.188 21.7629925,4.943 C21.3999985,5.429 20.9650058,5.835 20.6480111,5.963 C20.4250148,6.053 20.2990169,6.288 20.3440162,6.523 C20.3910154,6.758 20.596012,6.927 20.835008,6.927 L20.8370079,6.927 C21.1580026,6.926 21.6089951,6.852 22.0659874,6.748 C21.6049951,7.213 21.1390029,7.59 20.8410079,7.789 M23.8659574,5.43 C23.71296,5.265 23.4669641,5.223 23.2669674,5.328 C23.1249698,5.403 22.8459744,5.501 22.5209799,5.597 C22.9119733,5.084 23.228968,4.501 23.3649658,3.979 C23.4179649,3.776 23.3379662,3.561 23.1649691,3.441 C22.990972,3.322 22.7619758,3.324 22.5909787,3.445 C22.2979836,3.654 20.9390062,4.256 20.0620209,4.451 C18.9480394,3.45 17.8410579,3 16.5000802,3 C15.495097,3 14.5651125,3.287 13.4821306,3.929 C11.595162,5.049 11.2691675,7.47 11.4081652,8.955 C6.28725055,8.467 3.41429845,5.487 2.39231549,4.19 C2.29131718,4.06 2.12931988,3.999 1.96532261,4.001 C1.80032536,4.013 1.65132785,4.105 1.56832923,4.248 C0.346349608,6.341 0.846341271,8.495 1.78532561,9.945 C1.63232816,9.84 1.47533078,9.722 1.31933338,9.593 C1.16933588,9.47 0.962339336,9.442 0.787342254,9.526 C0.612345172,9.608 0.50034704,9.784 0.50034704,9.978 C0.50034704,12.176 1.78732558,13.746 3.04330464,14.638 C2.90530694,14.601 2.77230916,14.561 2.64931121,14.522 C2.46131434,14.465 2.25731774,14.52 2.12631993,14.667 C1.9963221,14.814 1.96332265,15.024 2.04332131,15.203 C2.84630792,17.008 4.44428128,18.354 6.23325145,18.822 C4.67727739,19.77 2.53731307,20.237 0.558346073,20.003 C0.324349975,19.972 0.0993537264,20.118 0.0253549603,20.344 C-0.0496437891,20.569 0.0463546101,20.816 0.252351175,20.934 C2.68631059,22.324 5.21526842,23 7.98222228,23 L8.00022198,23 C11.7811589,22.997 15.3320997,21.352 17.9980553,18.368 C20.5710124,15.489 21.9209899,11.802 21.6439945,8.445 C22.3059834,7.951 23.3059668,7.027 23.9239565,6.035 C24.0439545,5.843 24.0199549,5.595 23.8659574,5.43" id="path-1"></path>
    </defs>
    <g id="Atoms/icons/twitter" stroke="none" stroke-width="1" fill="none" fill-rule="evenodd">
        <mask id="mask-2" fill="white">
            <use xlink:href="#path-1"></use>
        </mask>
        <use id="twitter" fill="#9B9B9B" xlink:href="#path-1"></use>
    </g>
</svg>