<?xml version="1.0" encoding="utf-8"?>
<!-- Generator: Adobe Illustrator 22.0.1, SVG Export Plug-In . SVG Version: 6.00 Build 0)  -->
<svg version="1.1" id="Layer_1" xmlns="http://www.w3.org/2000/svg" xmlns:xlink="http://www.w3.org/1999/xlink" x="0px" y="0px"
	 viewBox="0 0 49.9 43.1" style="enable-background:new 0 0 49.9 43.1;" xml:space="preserve">
<style type="text/css">
	.st0{fill:#050506;}
	.st1{fill:#FFFFFF;}
	.st2{fill:#D30672;}
</style>
<g>
	<path class="st0" d="M0,21.6C0,14.4,0,7.3,0,0.2C0,0,0,0,0.2,0c8.6,0,17.1,0,25.7,0c0.9,0,1.9,0,2.8,0.1c1.9,0.1,3.7,0.4,5.6,0.8
		c2.3,0.5,4.4,1.3,6.5,2.5c2.9,1.7,5.1,4.1,6.7,7.1c0.8,1.6,1.4,3.3,1.8,5c0.2,1.1,0.4,2.2,0.5,3.3c0.1,1.2,0.1,2.3,0.1,3.5
		c0,1-0.1,2-0.2,3c-0.3,2.2-0.8,4.3-1.7,6.3c-1.3,2.8-3.2,5.2-5.7,7c-1.8,1.3-3.8,2.3-5.9,3c-1.3,0.4-2.7,0.8-4.1,1
		c-0.8,0.1-1.6,0.2-2.4,0.3c-1,0.1-1.9,0.2-2.9,0.2c-2.6,0-5.3,0-7.9,0c-6.3,0-12.6,0-18.9,0c-0.2,0-0.2,0-0.2-0.2
		C0,35.8,0,28.7,0,21.6z M2,21.5C2,28,2,34.4,2,40.8c0,0.2,0,0.2,0.2,0.2c7.6,0,15.1,0,22.7,0c0.9,0,1.8,0,2.7,0
		c1.2-0.1,2.5-0.2,3.7-0.4c1.2-0.2,2.4-0.4,3.6-0.8c2-0.6,3.9-1.4,5.6-2.6c2.3-1.6,4.1-3.6,5.3-6.1c1.1-2.2,1.6-4.5,1.9-6.9
		c0.1-0.7,0.1-1.4,0.1-2.1c0-1.2,0-2.4-0.1-3.7c-0.1-0.8-0.2-1.7-0.4-2.5c-0.3-1.3-0.7-2.6-1.2-3.8c-1.3-2.8-3.3-5.1-5.9-6.8
		c-1.5-0.9-3-1.6-4.7-2.1c-2.2-0.7-4.4-1-6.6-1.2C27.7,2.1,26.5,2,25.4,2C17.7,2,10,2,2.3,2C2,2,2,2,2,2.3C2,8.7,2,15.1,2,21.5z"/>
	<path class="st1" d="M2,21.5C2,15.1,2,8.7,2,2.3C2,2,2,2,2.3,2C10,2,17.7,2,25.4,2c1.2,0,2.3,0,3.5,0.1c2.3,0.2,4.5,0.5,6.6,1.2
		c1.6,0.5,3.2,1.2,4.7,2.1c2.6,1.7,4.6,3.9,5.9,6.8c0.6,1.2,1,2.5,1.2,3.8c0.2,0.8,0.3,1.7,0.4,2.5c0.1,1.2,0.2,2.4,0.1,3.7
		c0,0.7-0.1,1.4-0.1,2.1c-0.2,2.4-0.8,4.7-1.9,6.9c-1.2,2.5-3,4.5-5.3,6.1c-1.7,1.2-3.6,2-5.6,2.6c-1.2,0.3-2.4,0.6-3.6,0.8
		C30.2,40.8,29,41,27.7,41c-0.9,0-1.8,0-2.7,0c-7.6,0-15.1,0-22.7,0c-0.2,0-0.2,0-0.2-0.2C2,34.4,2,28,2,21.5z M16.6,29.9
		c0,2.6,0,5.1,0,7.7c0,0.3,0,0.3,0.3,0.3c2.5,0,5,0,7.5,0c1.1,0,2.3,0,3.4-0.1c0.7,0,1.4-0.1,2.1-0.2c1-0.1,1.9-0.3,2.9-0.5
		c1.6-0.3,3.1-0.8,4.5-1.6c1.4-0.7,2.6-1.6,3.6-2.7c1.3-1.4,2.2-3.1,2.8-4.9c0.3-1.1,0.6-2.2,0.7-3.3c0.1-0.9,0.2-1.7,0.2-2.6
		c0-0.2,0-0.2-0.2-0.2c0,0-0.1,0-0.1,0c-1.7,0-3.3,0-5,0c-0.2,0-0.2,0-0.2-0.2c0-2.8,0-5.6,0-8.3c0,0,0-0.1,0-0.1
		c0-0.1,0-0.1,0.1-0.1c0,0,0.1,0,0.1,0c0.6,0,1.2,0,1.7,0c0.2,0,0.2,0,0.2,0.2c0,1.9,0,3.9,0,5.8c0,0.1,0,0.3,0,0.4
		c0,0.1,0,0.1,0.1,0.1c1,0,2,0,3,0c0.1,0,0.1,0,0.1-0.1c0-0.4-0.1-0.8-0.1-1.2c-0.2-1.4-0.5-2.7-1-3.9c-0.5-1.4-1.3-2.7-2.2-3.8
		c-1.1-1.3-2.5-2.4-4-3.2c-1.5-0.8-3.1-1.3-4.7-1.7c-2-0.4-4.1-0.6-6.1-0.7c-3.2,0-6.4,0-9.6,0c-0.3,0-0.2,0-0.2,0.2
		c0,2.5,0,5,0,7.5c0,0,0,0.1,0,0.1c0,0.1,0,0.1,0.1,0.1c0.2,0,0.4,0,0.6,0c0.5,0,1,0,1.5,0.1c1.2,0.2,2.1,0.8,2.7,2
		c0.3,0.6,0.4,1.2,0.5,1.8c0.1,0.8,0,1.6-0.2,2.3c-0.3,0.8-0.7,1.5-1.5,2c-0.6,0.4-1.3,0.6-2,0.6c-0.4,0-0.9,0-1.3,0
		c-0.3,0-0.2,0-0.2,0.2C16.6,24.8,16.6,27.3,16.6,29.9z M5.2,31.1c0,2.2,0,4.4,0,6.6c0,0.2,0,0.2,0.2,0.2c2.4,0,4.8,0,7.2,0
		c0.2,0,0.2,0,0.2-0.2c0-4.4,0-8.7,0-13.1c0-0.3,0-0.2-0.2-0.2c-2.4,0-4.8,0-7.2,0c0,0-0.1,0-0.1,0c-0.1,0-0.1,0-0.1,0.1
		c0,0,0,0.1,0,0.1C5.2,26.8,5.2,28.9,5.2,31.1z M13.7,17.6c0-2.6-2.1-4.7-4.7-4.7c-2.6,0-4.7,2.1-4.7,4.7c0,2.5,2,4.7,4.7,4.7
		C11.6,22.3,13.7,20.2,13.7,17.6z M16.6,17.6c0,0.7,0,1.4,0,2c0,0.2,0,0.2,0.1,0.2c0.6,0,1.1,0,1.7,0c0.6-0.1,1-0.3,1.2-0.9
		c0-0.1,0.1-0.2,0.1-0.4c0.1-0.5,0.1-1,0.1-1.5c0-0.3-0.1-0.6-0.2-0.8c-0.2-0.3-0.4-0.6-0.8-0.7c-0.2-0.1-0.4-0.1-0.6-0.1
		c-0.4,0-0.9,0-1.3,0c-0.1,0-0.1,0-0.1,0.1c0,0,0,0.1,0,0.1C16.6,16.3,16.6,16.9,16.6,17.6z"/>
	<path class="st2" d="M16.6,29.9c0-2.6,0-5.1,0-7.7c0-0.3,0-0.2,0.2-0.2c0.4,0,0.9,0,1.3,0c0.7,0,1.4-0.2,2-0.6
		c0.8-0.5,1.2-1.2,1.5-2c0.2-0.8,0.3-1.5,0.2-2.3c0-0.6-0.2-1.3-0.5-1.8c-0.6-1.1-1.5-1.7-2.7-2c-0.5-0.1-1-0.1-1.5-0.1
		c-0.2,0-0.4,0-0.6,0c-0.1,0-0.1,0-0.1-0.1c0,0,0-0.1,0-0.1c0-2.5,0-5,0-7.5c0-0.3,0-0.2,0.2-0.2c3.2,0,6.4,0,9.6,0
		c2.1,0,4.1,0.2,6.1,0.7c1.6,0.4,3.2,0.9,4.7,1.7c1.5,0.8,2.9,1.9,4,3.2c1,1.1,1.7,2.4,2.2,3.8c0.5,1.3,0.8,2.6,1,3.9
		c0.1,0.4,0.1,0.8,0.1,1.2c0,0.1,0,0.1-0.1,0.1c-1,0-2,0-3,0c-0.1,0-0.1,0-0.1-0.1c0-0.1,0-0.3,0-0.4c0-1.9,0-3.9,0-5.8
		c0-0.2,0-0.2-0.2-0.2c-0.6,0-1.2,0-1.7,0c0,0-0.1,0-0.1,0c-0.1,0-0.1,0-0.1,0.1c0,0,0,0.1,0,0.1c0,2.8,0,5.6,0,8.3
		c0,0.2,0,0.2,0.2,0.2c1.7,0,3.3,0,5,0c0,0,0.1,0,0.1,0c0.2,0,0.2,0,0.2,0.2c0,0.9-0.1,1.7-0.2,2.6c-0.1,1.1-0.4,2.2-0.7,3.3
		c-0.6,1.8-1.5,3.5-2.8,4.9c-1,1.1-2.3,2-3.6,2.7c-1.4,0.7-2.9,1.2-4.5,1.6c-1,0.2-1.9,0.4-2.9,0.5c-0.7,0.1-1.4,0.1-2.1,0.2
		c-1.1,0.1-2.3,0.1-3.4,0.1c-2.5,0-5,0-7.5,0c-0.3,0-0.3,0-0.3-0.3C16.6,35,16.6,32.5,16.6,29.9z M38.1,21.9c0-0.1,0-0.1,0-0.1
		c-0.8-2.8-1.7-5.6-2.5-8.4c-0.1-0.2-0.1-0.2-0.2-0.2c-0.9,0-1.8,0-2.7,0c0,0-0.1,0-0.1,0c-0.1,0-0.1,0-0.1,0.1c0,0,0,0.1,0,0.1
		c-0.8,2.8-1.7,5.6-2.5,8.4c0,0.1-0.1,0.1,0,0.2c0,0,0,0,0.1,0c0.7,0,1.4,0,2.1,0c0.1,0,0.1-0.1,0.1-0.1c0.1-0.5,0.3-0.9,0.4-1.4
		c0-0.2,0-0.2,0.2-0.2c0.8,0,1.7,0,2.5,0c0.2,0,0.2,0,0.2,0.2c0.1,0.5,0.3,0.9,0.4,1.4c0.1,0.2,0.1,0.2,0.2,0.2c0.6,0,1.2,0,1.9,0
		C37.9,22,38,22,38.1,21.9z M23.2,17.6c0,1.4,0,2.8,0,4.1c0,0,0,0.1,0,0.1c0,0.1,0,0.1,0.1,0.1c0,0,0.1,0,0.1,0c1.7,0,3.4,0,5,0
		c0.2,0,0.2,0,0.2-0.2c0-0.6,0-1.1,0-1.7c0-0.3,0-0.3-0.3-0.3c-0.9,0-1.9,0-2.8,0c-0.2,0-0.2,0-0.2-0.2c0-0.3,0-0.6,0-0.9
		c0-0.2,0-0.2,0.2-0.2c0.5,0,1,0,1.4,0c0.4,0,0.7,0,1.1,0c0.1,0,0.2,0,0.2-0.1c0-0.6,0-1.3,0-1.9c0-0.1,0-0.1-0.1-0.1
		c-0.1,0-0.2,0-0.2,0c-0.8,0-1.5,0-2.3,0c-0.2,0-0.2,0-0.2-0.2c0-0.2,0-0.4,0-0.6c0-0.2,0-0.2,0.2-0.2c0,0,0.1,0,0.1,0
		c0.8,0,1.7,0,2.5,0c0.2,0,0.2,0,0.2-0.2c0-0.4,0-0.9,0-1.3c0-0.2,0-0.4,0-0.6c0-0.1,0-0.1-0.1-0.1c0,0-0.1,0-0.1,0
		c-1.6,0-3.2,0-4.8,0c-0.2,0-0.2,0-0.2,0.2C23.2,14.8,23.2,16.2,23.2,17.6z"/>
	<path class="st0" d="M5.2,31.1c0-2.2,0-4.3,0-6.5c0,0,0-0.1,0-0.1c0-0.1,0-0.1,0.1-0.1c0,0,0.1,0,0.1,0c2.4,0,4.8,0,7.2,0
		c0.3,0,0.2,0,0.2,0.2c0,4.4,0,8.7,0,13.1c0,0.2,0,0.2-0.2,0.2c-2.4,0-4.8,0-7.2,0c-0.2,0-0.2,0-0.2-0.2C5.2,35.5,5.2,33.3,5.2,31.1
		z"/>
	<path class="st0" d="M13.7,17.6c0,2.6-2.1,4.7-4.8,4.7c-2.7,0-4.7-2.2-4.7-4.7c0-2.6,2.1-4.7,4.7-4.7C11.6,12.8,13.7,15,13.7,17.6z
		"/>
	<path class="st2" d="M16.6,17.6c0-0.7,0-1.3,0-2c0,0,0-0.1,0-0.1c0-0.1,0-0.1,0.1-0.1c0.4,0,0.9,0,1.3,0c0.2,0,0.4,0,0.6,0.1
		c0.4,0.1,0.6,0.4,0.8,0.7c0.1,0.3,0.2,0.5,0.2,0.8c0,0.5,0,1-0.1,1.5c0,0.1-0.1,0.3-0.1,0.4c-0.2,0.5-0.6,0.8-1.2,0.9
		c-0.6,0.1-1.1,0-1.7,0c-0.1,0-0.1,0-0.1-0.2C16.6,18.9,16.6,18.3,16.6,17.6z"/>
	<path class="st1" d="M38.1,21.9c-0.1,0-0.1,0-0.2,0c-0.6,0-1.2,0-1.9,0c-0.2,0-0.2,0-0.2-0.2c-0.1-0.5-0.3-0.9-0.4-1.4
		c0-0.2,0-0.2-0.2-0.2c-0.8,0-1.7,0-2.5,0c-0.2,0-0.2,0-0.2,0.2c-0.1,0.5-0.3,0.9-0.4,1.4c0,0.1,0,0.1-0.1,0.1c-0.7,0-1.4,0-2.1,0
		c0,0,0,0-0.1,0c0-0.1,0-0.1,0-0.2c0.8-2.8,1.7-5.6,2.5-8.4c0,0,0-0.1,0-0.1c0-0.1,0-0.1,0.1-0.1c0,0,0.1,0,0.1,0c0.9,0,1.8,0,2.7,0
		c0.2,0,0.2,0,0.2,0.2c0.8,2.8,1.7,5.6,2.5,8.4C38,21.8,38.1,21.9,38.1,21.9z M33.1,18.1c0.5,0,1,0,1.5,0c0,0,0,0,0-0.1
		c-0.2-0.8-0.4-1.5-0.7-2.3c0,0,0-0.1-0.1-0.1c-0.1,0-0.1,0-0.1,0.1c0,0,0,0,0,0.1c-0.2,0.7-0.4,1.4-0.6,2.2
		C33.1,18,33.1,18,33.1,18.1z"/>
	<path class="st1" d="M23.2,17.6c0-1.4,0-2.8,0-4.2c0-0.2,0-0.2,0.2-0.2c1.6,0,3.2,0,4.8,0c0,0,0.1,0,0.1,0c0.1,0,0.1,0,0.1,0.1
		c0,0.2,0,0.4,0,0.6c0,0.4,0,0.9,0,1.3c0,0.2,0,0.2-0.2,0.2c-0.8,0-1.7,0-2.5,0c0,0-0.1,0-0.1,0c-0.2,0-0.2,0-0.2,0.2
		c0,0.2,0,0.4,0,0.6c0,0.2,0,0.2,0.2,0.2c0.8,0,1.5,0,2.3,0c0.1,0,0.2,0,0.2,0c0.1,0,0.1,0,0.1,0.1c0,0.6,0,1.3,0,1.9
		c0,0.1,0,0.1-0.2,0.1c-0.4,0-0.7,0-1.1,0c-0.5,0-1,0-1.4,0c-0.2,0-0.2,0-0.2,0.2c0,0.3,0,0.6,0,0.9c0,0.2,0,0.2,0.2,0.2
		c0.9,0,1.9,0,2.8,0c0.3,0,0.3,0,0.3,0.3c0,0.6,0,1.1,0,1.7c0,0.2,0,0.2-0.2,0.2c-1.7,0-3.4,0-5,0c0,0-0.1,0-0.1,0
		c-0.1,0-0.1,0-0.1-0.1c0,0,0-0.1,0-0.1C23.2,20.3,23.2,18.9,23.2,17.6z"/>
	<path class="st2" d="M33.1,18.1c0-0.1,0-0.1,0-0.2c0.2-0.7,0.4-1.4,0.6-2.2c0,0,0,0,0-0.1c0-0.1,0-0.1,0.1-0.1c0.1,0,0.1,0,0.1,0.1
		c0.2,0.8,0.4,1.5,0.7,2.3c0,0,0,0,0,0.1C34.1,18.1,33.6,18.1,33.1,18.1z"/>
</g>
</svg>
