<?xml version="1.0" encoding="utf-8"?>
<!-- Generator: Adobe Illustrator 22.0.1, SVG Export Plug-In . SVG Version: 6.00 Build 0)  -->
<svg version="1.1" id="Layer_1" xmlns="http://www.w3.org/2000/svg" xmlns:xlink="http://www.w3.org/1999/xlink" x="0px" y="0px"
	 viewBox="0 0 25.2 12.6" style="enable-background:new 0 0 25.2 12.6;" xml:space="preserve">
<style type="text/css">
	.st0{fill:#54B4CF;}
</style>
<title>Path</title>
<desc>Created with Sketch.</desc>
<path class="st0" d="M21,7.6C21,7.6,21,7.6,21,7.6c-0.4,0-0.7,0.1-0.9,0.3c-0.9,0.5-1.4,1.5-3.3,1.5c-1,0-1.6-0.3-2-0.6
	c-1-0.8-1.7-2.1-1.4-3.5c0.2-1.2,1.1-2.3,2.2-2.8c0.6-0.3,1.3-0.4,1.8-0.3c0.2,0,0.4-0.3,0.2-0.4C16,0.7,14.2,0,12.2,0
	c-3.8,0-7,2.4-8.3,5.7l0,0c-0.8,2.2-1.6,2.9-1.7,3C1.7,9.1,1.1,9.4,0,9.4v2.2c0,0.6,0.4,1,1,1h3h16.3H24c0.6,0,1-0.4,1.2-1V9.4
	C22.7,9.4,22.5,7.6,21,7.6z"/>
</svg>
