<?xml version="1.0" encoding="utf-8"?>
<!-- Generator: Adobe Illustrator 22.0.1, SVG Export Plug-In . SVG Version: 6.00 Build 0)  -->
<svg version="1.1" id="Layer_1" xmlns="http://www.w3.org/2000/svg" xmlns:xlink="http://www.w3.org/1999/xlink" x="0px" y="0px"
	 viewBox="0 0 15 17" style="enable-background:new 0 0 15 17;" xml:space="preserve">
<style type="text/css">
	.st0{fill:#54B4CF;}
</style>
<title>building</title>
<desc>Created with Sketch.</desc>
<g id="_x32_.-Design">
	<g id="Aanvraag-offerte" transform="translate(-255.000000, -1133.000000)">
		<g id="building">
			<path id="path-1_1_" class="st0" d="M269.6,1148.9h-0.7v-15.1c0-0.4-0.4-0.8-0.8-0.8h-11.2c-0.4,0-0.8,0.4-0.8,0.8v15.1h-0.7
				c-0.2,0-0.4,0.2-0.4,0.4v0.7h15v-0.7C270,1149.1,269.8,1148.9,269.6,1148.9z M259,1135.4c0-0.2,0.2-0.4,0.4-0.4h1.2
				c0.2,0,0.4,0.2,0.4,0.4v1.2c0,0.2-0.2,0.4-0.4,0.4h-1.2c-0.2,0-0.4-0.2-0.4-0.4V1135.4z M259,1138.4c0-0.2,0.2-0.4,0.4-0.4h1.2
				c0.2,0,0.4,0.2,0.4,0.4v1.2c0,0.2-0.2,0.4-0.4,0.4h-1.2c-0.2,0-0.4-0.2-0.4-0.4V1138.4z M260.6,1144h-1.2c-0.2,0-0.4-0.2-0.4-0.4
				v-1.2c0-0.2,0.2-0.4,0.4-0.4h1.2c0.2,0,0.4,0.2,0.4,0.4v1.2C261,1143.8,260.8,1144,260.6,1144z M263.5,1149h-2v-2.6
				c0-0.2,0.2-0.4,0.4-0.4h1.2c0.2,0,0.4,0.2,0.4,0.4V1149z M266,1143.6c0,0.2-0.2,0.4-0.4,0.4h-1.2c-0.2,0-0.4-0.2-0.4-0.4v-1.2
				c0-0.2,0.2-0.4,0.4-0.4h1.2c0.2,0,0.4,0.2,0.4,0.4V1143.6z M266,1139.6c0,0.2-0.2,0.4-0.4,0.4h-1.2c-0.2,0-0.4-0.2-0.4-0.4v-1.2
				c0-0.2,0.2-0.4,0.4-0.4h1.2c0.2,0,0.4,0.2,0.4,0.4V1139.6z M266,1136.6c0,0.2-0.2,0.4-0.4,0.4h-1.2c-0.2,0-0.4-0.2-0.4-0.4v-1.2
				c0-0.2,0.2-0.4,0.4-0.4h1.2c0.2,0,0.4,0.2,0.4,0.4V1136.6z"/>
		</g>
	</g>
</g>
</svg>
