<?xml version="1.0" encoding="utf-8"?>
<!-- Generator: Adobe Illustrator 22.0.1, SVG Export Plug-In . SVG Version: 6.00 Build 0)  -->
<svg version="1.1" id="Layer_1" xmlns="http://www.w3.org/2000/svg" xmlns:xlink="http://www.w3.org/1999/xlink" x="0px" y="0px"
	 viewBox="0 0 10 13" style="enable-background:new 0 0 10 13;" xml:space="preserve">
<style type="text/css">
	.st0{fill:#54B4CF;}
</style>
<title>child</title>
<desc>Created with Sketch.</desc>
<g id="_x32_.-Design">
	<g id="Aanvraag-offerte" transform="translate(-494.000000, -1098.000000)">
		<g id="child">
			<path id="path-1_1_" class="st0" d="M497.1,1099.8c0-1,0.8-1.8,1.9-1.8s1.9,0.8,1.9,1.8s-0.8,1.8-1.9,1.8
				S497.1,1100.8,497.1,1099.8z M503.8,1099.9c-0.3-0.3-0.9-0.3-1.2,0l-2.3,2.2h-2.6l-2.3-2.2c-0.3-0.3-0.9-0.3-1.2,0
				c-0.3,0.3-0.3,0.8,0,1.1l2.5,2.4v6.8c0,0.4,0.4,0.8,0.8,0.8h0.4c0.5,0,0.8-0.4,0.8-0.8v-2.8h0.4v2.8c0,0.4,0.4,0.8,0.8,0.8h0.4
				c0.5,0,0.8-0.4,0.8-0.8v-6.8l2.5-2.4C504.1,1100.7,504.1,1100.2,503.8,1099.9z"/>
		</g>
	</g>
</g>
</svg>
