<?xml version="1.0" encoding="UTF-8"?>
<svg width="24px" height="24px" viewBox="0 0 24 24" version="1.1" xmlns="http://www.w3.org/2000/svg" xmlns:xlink="http://www.w3.org/1999/xlink">
    <!-- Generator: Sketch 54.1 (76490) - https://sketchapp.com -->
    <title>Atoms/icons/comment</title>
    <desc>Created with Sketch.</desc>
    <defs>
        <path d="M3,4 L21,4 C21.5522847,4 22,4.44771525 22,5 L22,16 C22,16.5522847 21.5522847,17 21,17 L7.35078106,17 C7.12370956,17 6.90339906,17.0772808 6.72608601,17.2191312 L3.29975604,19.9601952 C2.95474649,20.2362028 2.45131259,20.1802657 2.17530495,19.8352562 C2.0618246,19.6934057 2,19.5171573 2,19.3355001 L2,5 C2,4.44771525 2.44771525,4 3,4 Z M3.5,5.5 L3.5,17.8790627 L5.78904344,16.047828 C6.23232606,15.6932019 6.78310232,15.5 7.35078106,15.5 L20.5,15.5 L20.5,5.5 L3.5,5.5 Z M6.75,8 L17.25,8 C17.6642136,8 18,8.33578644 18,8.75 C18,9.16421356 17.6642136,9.5 17.25,9.5 L6.75,9.5 C6.33578644,9.5 6,9.16421356 6,8.75 C6,8.33578644 6.33578644,8 6.75,8 Z M6.75,11 L17.25,11 C17.6642136,11 18,11.3357864 18,11.75 C18,12.1642136 17.6642136,12.5 17.25,12.5 L6.75,12.5 C6.33578644,12.5 6,12.1642136 6,11.75 C6,11.3357864 6.33578644,11 6.75,11 Z" id="path-1"></path>
    </defs>
    <g id="Atoms/icons/comment" stroke="none" stroke-width="1" fill="none" fill-rule="evenodd">
        <mask id="mask-2" fill="white">
            <use xlink:href="#path-1"></use>
        </mask>
        <use id="text" fill="#9B9B9B" fill-rule="nonzero" xlink:href="#path-1"></use>
    </g>
</svg>