<?xml version="1.0" encoding="utf-8"?>
<!-- Generator: Adobe Illustrator 22.0.1, SVG Export Plug-In . SVG Version: 6.00 Build 0)  -->
<svg version="1.1" id="Layer_1" xmlns="http://www.w3.org/2000/svg" xmlns:xlink="http://www.w3.org/1999/xlink" x="0px" y="0px"
	 viewBox="0 0 49.7 29.8" style="enable-background:new 0 0 49.7 29.8;" xml:space="preserve">
<style type="text/css">
	.st0{fill:#CC1617;}
	.st1{fill:#F3971A;}
	.st2{fill:#FABD5F;}
	.st3{fill:#FDFDFF;}
	.st4{fill:#2A2958;}
</style>
<g>
	<path class="st0" d="M24.9,25.9c-0.6,0.5-1.3,1.1-2,1.5c-1.9,1.2-3.9,1.9-6.1,2.2c-2.9,0.4-5.7-0.1-8.3-1.3c-4.2-2.1-6.9-5.4-8-9.9
		C-0.9,13,0.8,7.5,4.9,3.8c2.2-2,4.7-3.2,7.6-3.6c4.6-0.7,8.7,0.5,12.2,3.5c0.1,0,0.1,0.1,0.2,0.1c0,0.1-0.1,0.1-0.1,0.2
		c-0.4,0.3-0.7,0.6-1,1c-0.1,0.1-0.2,0.2-0.3,0.4c0.1,0,0.2,0,0.2,0c0.8,0,1.7,0,2.5,0c0.1,0,0.2,0,0.2,0.1c0.4,0.5,0.7,0.9,1,1.4
		c0,0.1,0,0.1-0.1,0.1c-0.1,0-0.1,0-0.2,0c-1.6,0-3.2,0-4.8,0c-0.1,0-0.2,0-0.2,0.1c-0.3,0.5-0.5,0.9-0.8,1.4c0,0.1,0,0.1,0.1,0.1
		c0.1,0,0.1,0,0.2,0c2.2,0,4.3,0,6.5,0c0.1,0,0.2,0,0.3,0.2c0.2,0.4,0.3,0.8,0.5,1.2c0.1,0.2,0.1,0.2-0.2,0.2c-2.6,0-5.2,0-7.8,0
		c-0.2,0-0.3,0-0.3,0.2c-0.1,0.3-0.2,0.7-0.3,1c-0.1,0.3-0.1,0.3,0.3,0.3c2.8,0,5.7,0,8.5,0c0.2,0,0.3,0.1,0.3,0.2
		c0,0.2,0.1,0.4,0.1,0.6c-0.7-0.1-1.1,0.3-1.5,0.9c0-0.2,0-0.4,0.1-0.6c0-0.1,0-0.2-0.2-0.2c-0.3,0-0.6,0-0.9,0
		c-0.4,0-0.4,0-0.5,0.4c0,0,0,0.1,0,0.1c0,0-0.1,0-0.1,0c-0.2,0-0.2,0-0.2,0.2c0,0.2-0.1,0.4-0.1,0.6c-0.2,0.9-0.3,1.9-0.5,2.8
		c-0.1,0.8-0.2,1.5-0.4,2.3c0,0.2,0,0.2,0.2,0.2c0.3,0,0.7,0,1,0c0.4,0,0.4,0,0.5-0.4c0,0,0-0.1,0-0.1c0.1,0,0.1,0,0.2,0
		c0.1,0,0.2,0,0.2-0.1c0.1-0.7,0.2-1.5,0.4-2.2c0.1-0.4,0.1-0.9,0.3-1.3c0.2-0.1,0.3-0.2,0.5-0.2c0.2,0,0.3,0,0.3,0.3
		c0,0.1,0,0.2,0,0.3c-0.1,1,0,1.9,0.6,2.8c-0.1,0.4-0.2,0.7-0.3,1.1c0,0.2-0.1,0.3-0.3,0.3c-0.8,0-1.7,0-2.5,0c-1.8,0-3.5,0-5.3,0
		c-0.2,0-0.2,0-0.1,0.2c0.2,0.4,0.3,0.8,0.5,1.2c0.1,0.2,0.2,0.2,0.3,0.2c2.2,0,4.3,0,6.5,0c0.1,0,0.1,0,0.2,0c0,0.1,0,0.1,0,0.1
		c-0.2,0.4-0.4,0.8-0.7,1.3c-0.1,0.1-0.2,0.2-0.3,0.2c-1.6,0-3.2,0-4.8,0c-0.1,0-0.1,0-0.2,0c0.3,0.5,0.6,0.9,1,1.4
		c0.1,0.1,0.1,0.1,0.3,0.1c0.9,0,1.8,0,2.7,0c0.1,0,0.1,0,0.2,0c-0.1,0.1-0.2,0.2-0.2,0.3C25.8,25,25.3,25.5,24.9,25.9z M16.8,18.5
		C16.9,18.5,16.9,18.4,16.8,18.5c0.2-0.2,0.4-0.4,0.5-0.6c0,0.2,0,0.3,0,0.5c0,0.6,0.4,0.9,0.9,1.1c0.4,0.1,0.8,0,1.2-0.1
		c0.4-0.1,0.4-0.1,0.4-0.5c0,0,0.1,0,0.1,0c0.2,0,0.3-0.1,0.3-0.3c0-0.3,0.1-0.6,0.1-0.9c0,0,0,0.1,0,0.1c0.2,0.6,0.5,1.1,1.1,1.3
		c1.1,0.5,2.1,0.4,3.2,0.1c0.1,0,0.1-0.1,0.1-0.1c0-0.1,0-0.2,0-0.3c0.2,0,0.3-0.2,0.3-0.3c0.1-0.4,0.1-0.8,0.2-1.3
		c-0.1,0-0.2,0.1-0.2,0.1c-0.6,0.2-1.2,0.4-1.9,0.3c-0.4-0.1-0.8-0.3-0.9-0.7c0.8,0,1.6,0,2.4,0c0.4,0,0.4,0,0.5-0.4
		c0,0,0-0.1,0-0.1c0.2,0,0.3,0,0.3-0.2c0-0.3,0.1-0.7,0.1-1c0-0.7-0.1-1.3-0.5-1.8c-0.7-0.8-2-0.9-3-0.3c-0.3,0.2-0.6,0.5-0.9,0.9
		c0,0-0.1,0.1-0.1,0.1c0,0,0,0,0,0c-0.2,0.1-0.3,0.3-0.4,0.5c-0.6,0.9-0.7,2-0.6,3c-0.2,0.1-0.4,0.1-0.5,0c-0.3,0-0.4-0.2-0.4-0.5
		c0-0.2,0.1-0.4,0.1-0.6c0.1-0.5,0.2-1.1,0.3-1.6c0,0,0,0,0.1,0c0.2,0,0.4,0.1,0.5,0c0.1-0.1,0.1-0.3,0.1-0.5c0.1,0,0.3,0,0.3-0.2
		c0-0.4,0.1-0.8,0.2-1.2c0-0.1,0-0.1-0.1-0.1c-0.2,0-0.3,0-0.5,0c-0.1,0-0.2,0-0.2-0.2c0.1-0.2,0.1-0.4,0.1-0.6c0-0.1,0-0.2-0.1-0.2
		c-0.3,0-0.7,0-1,0c-0.4,0-0.4,0-0.5,0.4c0,0,0,0,0,0c-0.2,0-0.3-0.1-0.4,0.2c-0.1,0.5-0.2,1.1-0.3,1.6c-0.1,0.8-0.3,1.7-0.4,2.5
		c-0.1-0.6-0.4-1.1-1-1.3c-0.2-0.1-0.4-0.2-0.6-0.3c-0.1-0.1-0.2-0.2-0.2-0.4c0.4-0.1,0.8,0,1.2,0c0.4,0,0.4,0,0.4-0.3
		c0-0.1,0-0.1,0-0.2c0.1,0,0.2,0,0.2,0c0.1,0,0.1,0,0.1-0.1c0.1-0.4,0.1-0.8,0.2-1.2c0-0.1,0-0.1-0.1-0.2c-0.5-0.1-1.1-0.1-1.6-0.1
		c-0.8,0.1-1.4,0.3-1.9,1c-0.3,0.2-0.4,0.5-0.5,0.8c0,0,0-0.1,0-0.1c0-0.9-0.5-1.4-1.4-1.6c-0.8-0.2-1.6-0.1-2.3,0.1
		c-0.3,0.1-0.5,0.2-0.5,0.5c-0.3,0-0.4,0.2-0.4,0.5c0,0.1,0,0.1,0,0.2c0,0.3-0.1,0.6-0.1,0.9c0.7-0.2,1.4-0.3,2.1-0.3
		c0.4,0,0.6,0.1,0.6,0.4c-0.5,0-1,0-1.5,0.2c-0.5,0.2-0.9,0.5-1.3,0.9c-0.2,0.2-0.4,0.4-0.5,0.7c0,0.1,0,0.2-0.1,0.3
		c0,0,0-0.1,0-0.1c0.2-1.5,0.5-2.9,0.7-4.4C9,12,9.1,11.6,9.1,11.2c-0.7,0-1.4,0-2,0c-0.5,0-0.5,0-0.6,0.4c0,0,0,0,0,0
		c-0.3,0-0.3,0-0.4,0.3c-0.1,0.3-0.2,0.6-0.3,0.9c-0.2,0.7-0.5,1.4-0.7,2.1C5,13.7,5,12.6,5,11.4c0-0.2-0.1-0.2-0.2-0.2
		c-0.6,0-1.1,0-1.7,0c-0.1,0-0.3-0.1-0.4,0c-0.1,0.1-0.1,0.3-0.1,0.4c0,0,0,0,0,0.1c-0.1,0-0.2,0-0.3,0c-0.1,0-0.1,0-0.1,0.1
		c-0.1,0.7-0.2,1.4-0.4,2.1c-0.2,1.1-0.4,2.3-0.6,3.4C1.2,17.9,1.1,18.5,1,19c0,0.1,0,0.2,0.2,0.2c0.4,0,0.7,0,1.1,0
		c0.3,0,0.3,0.1,0.3-0.3c0-0.2,0.1-0.3,0.3-0.2C3,18.8,3,18.7,3,18.6c0.1-0.5,0.2-1,0.2-1.5c0.1-0.6,0.2-1.2,0.3-1.8
		c0,1.1,0.1,2.2,0.1,3.3c0,0.2-0.1,0.4,0.1,0.5c0.1,0.1,0.3,0,0.5,0c0.2,0,0.4,0,0.5,0c0.1-0.1,0.1-0.3,0.2-0.4
		c0.2,0,0.3-0.1,0.3-0.3c0.1-0.4,0.3-0.8,0.4-1.2c0.3-0.8,0.6-1.6,0.9-2.4c0,0.1,0,0.1,0,0.2c-0.2,1.3-0.4,2.7-0.6,4
		c0,0.2,0,0.2,0.1,0.2c0.4,0,0.8,0,1.2,0c0.3,0,0.3,0,0.3-0.3c0-0.2,0.1-0.2,0.3-0.2c0.2,0,0.1-0.1,0.1-0.2c0.1-0.5,0.2-0.9,0.2-1.4
		c0,0.2,0,0.5,0,0.7c0,0.6,0.3,1.1,0.9,1.3c0.7,0.3,1.4,0.1,2-0.4c0.1-0.1,0.1-0.1,0.2-0.2c0,0.1,0,0.3,0,0.4c0,0.1,0,0.2,0.1,0.2
		c0.3,0,0.6,0,0.9,0c0.3,0,0.3,0,0.4-0.4c0,0,0-0.1,0-0.1c0.1,0,0.2,0,0.3,0c0,0.1,0,0.1,0,0.2c-0.1,0.2,0,0.3,0.2,0.3
		c0.7,0.1,1.3,0.2,2,0.1c0.4,0,0.8-0.1,1.1-0.3C16.5,18.9,16.7,18.7,16.8,18.5L16.8,18.5z"/>
	<path class="st1" d="M29.6,12.6c0-0.2-0.1-0.4-0.1-0.6c0-0.2-0.1-0.2-0.3-0.2c-2.8,0-5.7,0-8.5,0c-0.4,0-0.4,0-0.3-0.3
		c0.1-0.3,0.2-0.7,0.3-1c0-0.2,0.1-0.2,0.3-0.2c2.6,0,5.2,0,7.8,0c0.2,0,0.2,0,0.2-0.2c-0.1-0.4-0.3-0.8-0.5-1.2
		c-0.1-0.1-0.1-0.2-0.3-0.2c-2.2,0-4.3,0-6.5,0c-0.1,0-0.1,0-0.2,0c-0.1,0-0.1,0-0.1-0.1c0.2-0.5,0.5-0.9,0.8-1.4
		C22.3,6.9,22.4,7,22.4,7c1.6,0,3.2,0,4.8,0c0.1,0,0.1,0,0.2,0c0.1,0,0.1,0,0.1-0.1c-0.3-0.5-0.7-1-1-1.4c-0.1-0.1-0.1-0.1-0.2-0.1
		c-0.8,0-1.7,0-2.5,0c-0.1,0-0.1,0-0.2,0c0.1-0.1,0.2-0.3,0.3-0.4c0.3-0.3,0.6-0.7,1-1c0.1,0,0.1-0.1,0.1-0.2c0.6-0.6,1.3-1.1,2-1.5
		c1.9-1.2,4-2,6.3-2.2c4.4-0.4,8.4,0.8,11.7,3.8c2.5,2.2,4.1,5,4.6,8.4c0.8,4.6-0.3,8.7-3.3,12.2c-1.8,2.1-4,3.6-6.6,4.5
		c-1.9,0.6-3.8,0.9-5.8,0.8c-3.4-0.2-6.4-1.5-9-3.8c0,0,0,0,0,0c0.5-0.4,0.9-0.9,1.3-1.4c0.1-0.1,0.1-0.2,0.2-0.3
		c-0.1,0-0.2,0-0.2,0c-0.9,0-1.8,0-2.7,0c-0.1,0-0.2,0-0.3-0.1c-0.4-0.4-0.7-0.9-1-1.4c0.1,0,0.1,0,0.2,0c1.6,0,3.2,0,4.8,0
		c0.2,0,0.2,0,0.3-0.2c0.2-0.4,0.5-0.8,0.7-1.3c0,0,0-0.1,0-0.1c-0.1,0-0.1,0-0.2,0c-2.2,0-4.3,0-6.5,0c-0.2,0-0.3-0.1-0.3-0.2
		c-0.2-0.4-0.3-0.8-0.5-1.2c-0.1-0.2,0-0.2,0.1-0.2c1.8,0,3.5,0,5.3,0c0.8,0,1.7,0,2.5,0c0.2,0,0.3-0.1,0.3-0.3
		c0.1-0.4,0.2-0.7,0.3-1.1c0.4,0.6,1,0.9,1.7,1.1c0.5,0.1,1.1,0.1,1.6-0.1c0.4-0.1,0.4-0.1,0.5-0.5c0.2,0,0.4-0.1,0.4-0.4
		c0.6,1.1,2,1.3,2.9,0.4c0,0,0.1,0,0.1-0.1c0,0.1,0,0.2,0,0.3c0,0.1,0,0.2,0.2,0.2c0.3,0,0.5,0,0.8,0c0.4,0,0.4,0,0.5-0.4
		c0,0,0,0,0-0.1c0.2,0,0.4,0,0.6,0c0,0.1,0,0.2-0.1,0.4c0,0.1,0,0.1,0.1,0.1c0.4,0,0.7,0,1.1,0c0.5,0,0.5,0,0.5-0.5
		c0.1,0,0.1,0,0.2,0c0.1,0,0.2,0,0.2-0.2c0.1-0.6,0.2-1.2,0.3-1.8c0.1-0.5,0.1-1,0.3-1.5c0.2-0.2,0.4-0.4,0.7-0.4
		c-0.1,0.3-0.2,0.7-0.2,1c-0.1,0.7-0.1,1.4,0.2,2.1c0.4,1,1.3,1.4,2.3,1.1c0.3-0.1,0.6-0.3,0.9-0.5c0,0.2,0,0.3,0,0.4
		c0,0.1,0,0.2,0.1,0.1c0.3,0,0.6,0,0.9,0c0.5,0,0.5,0,0.5-0.5c0,0,0.1,0,0.1,0c0.2,0,0.2,0,0.3-0.2c0-0.4,0.1-0.8,0.2-1.2
		c0.3-2,0.6-4,1-6c0-0.1,0-0.2-0.1-0.2c-0.3,0-0.7,0-1,0c-0.1,0-0.3-0.1-0.4,0c-0.1,0.1-0.1,0.2-0.1,0.4c0,0,0,0.1,0,0.1
		c-0.1,0-0.1,0-0.2,0c-0.2,0-0.2,0-0.3,0.2c0,0.4-0.1,0.7-0.1,1.1c-0.9-0.7-1.8-0.6-2.5,0c-0.2,0.1-0.3,0.3-0.4,0.4
		c-0.3,0.2-0.5,0.5-0.7,0.8c0.1-0.6,0.3-1.1,0.5-1.6c-0.8-0.1-1.1,0.4-1.5,0.9c0-0.3,0.1-0.5,0.1-0.7c0-0.1,0-0.2-0.1-0.2
		c-0.3,0-0.6,0-0.9,0c-0.4,0-0.4,0-0.5,0.4c0,0,0,0.1,0,0.1c0,0-0.1,0-0.1,0c-0.2-0.1-0.3,0.1-0.3,0.3c0,0.3-0.1,0.6-0.2,0.9
		c0-0.1,0-0.1,0-0.2c-0.1-0.9-0.7-1.5-1.6-1.6c-0.7-0.1-1.5,0-2.2,0.2c-0.2,0.1-0.4,0.1-0.4,0.4c-0.1,0-0.3,0.1-0.4,0.1
		c-0.2,0-0.3,0.1-0.3,0.4c0,0.1,0,0.2,0,0.3c0,0.3-0.1,0.6-0.1,0.9c0.4-0.1,0.7-0.2,1-0.2c0.4,0,0.7,0,1.1,0c0.4,0,0.5,0.1,0.6,0.4
		c-0.3,0-0.5,0-0.8,0.1c-0.5,0.1-0.9,0.3-1.3,0.6c-0.7,0.3-1.2,0.8-1.3,1.5c-0.2,0.1-0.4,0.2-0.6,0.2c-0.9,0.2-1.7-0.2-1.9-1.1
		c-0.2-0.9-0.1-1.8,0.4-2.6c0-0.1,0.1-0.1,0.1-0.1c0.8-0.6,1.7-0.3,2.5,0.1c0-0.2,0.1-0.4,0.1-0.6c0.1,0,0.1,0,0.2,0.1
		c0.1,0.1,0.2,0.1,0.2-0.1c0.1-0.5,0.1-0.9,0.2-1.4c0-0.1,0-0.1-0.1-0.2c-0.7-0.3-1.4-0.4-2.2-0.3c-0.6,0.1-1.1,0.3-1.6,0.7
		c-0.4,0.1-0.7,0.4-0.9,0.7C29.8,12.6,29.7,12.6,29.6,12.6L29.6,12.6z M48.2,18.8c0.3,0,0.5-0.2,0.5-0.5c0-0.3-0.2-0.5-0.5-0.5
		c-0.3,0-0.5,0.2-0.5,0.5C47.7,18.6,48,18.8,48.2,18.8z"/>
	<path class="st2" d="M48.7,23.1c0,0.3-0.2,0.5-0.5,0.5c-0.3,0-0.5-0.2-0.5-0.5c0-0.3,0.2-0.5,0.5-0.5
		C48.5,22.6,48.7,22.9,48.7,23.1z M48.2,22.7c-0.2,0-0.4,0.2-0.4,0.4c0,0.2,0.2,0.4,0.4,0.4c0.2,0,0.4-0.2,0.4-0.4
		C48.6,22.9,48.4,22.7,48.2,22.7z"/>
	<path class="st3" d="M6.5,11.7C6.5,11.6,6.5,11.6,6.5,11.7c0.2-0.5,0.2-0.5,0.6-0.5c0.7,0,1.3,0,2,0C9.1,11.6,9,12,8.9,12.4
		c-0.2,1.5-0.5,2.9-0.7,4.4c0,0,0,0.1,0,0.1c0,0.1-0.1,0.2,0,0.3c-0.1,0.5-0.2,0.9-0.2,1.4c0,0.1,0,0.2-0.1,0.2c-0.5,0-0.9,0-1.4,0
		c-0.1,0-0.1-0.1-0.1-0.1c0.2-1.4,0.5-2.9,0.7-4.3c0.1-0.3,0.1-0.6,0.1-1c0,0,0,0-0.1,0c-0.2,0.5-0.4,1.1-0.5,1.6
		c-0.3,0.8-0.6,1.6-0.9,2.4c-0.1,0.4-0.3,0.8-0.4,1.2c-0.1,0.2-0.1,0.3-0.3,0.3c-0.2,0-0.4,0-0.7,0c-0.2,0-0.2,0-0.2-0.2
		C4,17.3,4,16.1,4,14.8c0-0.5,0-1.1,0-1.6c0,0-0.1,0-0.1,0c-0.1,0.7-0.2,1.5-0.4,2.2c-0.1,0.6-0.2,1.2-0.3,1.8
		c-0.1,0.5-0.2,1-0.2,1.5c0,0.1,0,0.2-0.1,0.1c-0.4,0-0.9,0-1.3,0c-0.1,0-0.1,0-0.1-0.1c0-0.3,0.1-0.5,0.1-0.8
		c0.3-1.5,0.5-3.1,0.8-4.6c0.1-0.5,0.2-1.1,0.3-1.6c0,0,0,0,0-0.1c0-0.1,0-0.3,0.1-0.4c0.1-0.1,0.3,0,0.4,0c0.6,0,1.1,0,1.7,0
		c0.2,0,0.2,0,0.2,0.2c0,1.2,0,2.3,0.1,3.5c0,0.3,0,0.6,0,0.9c0,0,0,0,0,0C5.6,14.4,6,13,6.5,11.7z"/>
	<path class="st3" d="M8.9,15.9c0.3-0.4,0.7-0.7,1.3-0.9c0.5-0.2,1-0.2,1.5-0.2c0.1,0,0.2,0,0.3,0c0.1,0,0.1,0,0.1-0.1
		c0.1-0.4,0-0.7-0.5-0.8c-0.4-0.1-0.8,0-1.2,0c-0.3,0-0.6,0.1-1,0.2c0.1-0.3,0.1-0.7,0.2-1c0-0.3,0.2-0.4,0.5-0.5
		c0.8-0.2,1.6-0.3,2.3-0.1c0.8,0.2,1.3,0.8,1.4,1.6c0,0,0,0.1,0,0.1c0,0.3-0.1,0.6-0.1,0.9c-0.1,0.9-0.3,1.7-0.4,2.6
		c0,0.1,0,0.2-0.1,0.4c-0.1,0.2,0,0.4-0.1,0.6c-0.1,0-0.2,0-0.3,0c-0.3,0-0.6,0-0.9,0c-0.1,0-0.2,0-0.1-0.1c0-0.1,0-0.3,0-0.4
		c-0.6,0.5-1,0.7-1.7,0.7c-0.6,0-1.1-0.3-1.3-0.9c-0.1-0.3-0.1-0.7-0.1-1C8.6,16.5,8.8,16.2,8.9,15.9z M11.2,17.4
		c0.1,0,0.1-0.1,0.2-0.1c0.3-0.3,0.4-0.7,0.5-1.1c0-0.1,0-0.2-0.2-0.2c-0.3,0-0.7,0-1,0.1c-0.3,0.1-0.5,0.2-0.5,0.5
		c-0.1,0.3,0,0.6,0.2,0.8C10.6,17.6,11,17.6,11.2,17.4z"/>
	<path class="st3" d="M22.4,16.7c0.1,0.5,0.5,0.7,0.9,0.7c0.7,0.1,1.3,0,1.9-0.3c0.1,0,0.1-0.1,0.2-0.1c-0.1,0.4-0.2,0.8-0.2,1.3
		c0,0.2-0.1,0.3-0.3,0.3c-0.7,0.2-1.4,0.2-2.1,0.1c-1-0.2-1.7-0.8-1.9-1.8c-0.2-0.6-0.1-1.3,0-1.9c0.1-0.5,0.3-0.9,0.5-1.4
		c0,0,0,0,0,0c0.1,0,0.1-0.1,0.1-0.1c0.3-0.3,0.5-0.6,0.9-0.9c0.9-0.6,2.3-0.5,3,0.3c0.5,0.5,0.6,1.2,0.5,1.8c0,0.3-0.1,0.7-0.1,1
		c0,0.2-0.2,0.2-0.3,0.2c-0.8,0-1.7,0-2.5,0C22.3,16.2,22.3,16.2,22.4,16.7z M23.8,14.9c0.5,0,0.5,0,0.4-0.5c0,0,0,0,0,0
		c-0.1-0.3-0.3-0.5-0.6-0.6c-0.4-0.1-0.8,0.2-1,0.6c-0.1,0.1-0.1,0.2-0.1,0.3c0,0.1,0,0.1,0.1,0.1C23,14.9,23.4,14.9,23.8,14.9z"/>
	<path class="st3" d="M17.4,17.8c-0.1,0.2-0.3,0.4-0.5,0.6c0,0-0.1,0-0.1,0c0,0,0,0,0,0c-0.2,0.1-0.4,0.2-0.7,0.3
		c-0.9,0.2-1.7,0.1-2.6,0c-0.1,0-0.1-0.1-0.1-0.2c0-0.2,0.1-0.5,0.1-0.7c0-0.1,0.1-0.3,0.1-0.4c0-0.1,0.1-0.2,0.2-0.1
		c0.2,0.1,0.3,0.1,0.5,0.1c0.4,0.1,0.9,0.1,1.3,0c0.2,0,0.4-0.2,0.4-0.4c0-0.2-0.1-0.4-0.2-0.5c-0.1,0-0.1-0.1-0.2-0.1
		c-0.2-0.1-0.5-0.2-0.7-0.4c-0.5-0.3-0.8-0.7-0.8-1.4c0-0.4,0.1-0.8,0.2-1.2c0.4-0.7,1.1-0.9,1.9-1c0.5,0,1.1,0,1.6,0.1
		c0.1,0,0.1,0.1,0.1,0.2c-0.1,0.4-0.1,0.8-0.2,1.2c0,0.1,0,0.1-0.1,0.1c-0.1,0-0.2,0-0.2,0c-0.2,0-0.3,0-0.5,0c-0.2,0-0.5,0-0.7,0
		c-0.3,0.1-0.4,0.2-0.4,0.5c0,0.2,0.1,0.3,0.2,0.4c0.2,0.1,0.4,0.2,0.6,0.3c0.6,0.3,0.9,0.7,1,1.3C17.6,16.9,17.6,17.4,17.4,17.8z"
		/>
	<path class="st3" d="M18.6,12.2C18.6,12.1,18.6,12.1,18.6,12.2c0.1-0.5,0.1-0.5,0.6-0.5c0.3,0,0.7,0,1,0c0.1,0,0.1,0,0.1,0.2
		c0,0.2-0.1,0.4-0.1,0.6c0,0.2,0,0.2,0.2,0.2c0.2,0,0.3,0,0.5,0c0.1,0,0.1,0,0.1,0.1c-0.1,0.4-0.1,0.8-0.2,1.2
		c0,0.2-0.2,0.2-0.3,0.2c0,0-0.1,0-0.1,0c-0.5,0-0.5,0-0.6,0.5c-0.1,0.5-0.2,1.1-0.3,1.6c0,0.2-0.1,0.4-0.1,0.6
		c0,0.3,0.1,0.5,0.4,0.5c0.2,0,0.4,0,0.5,0c0.1,0.1,0,0.2,0,0.2c0,0.3-0.1,0.6-0.1,0.9c0,0.2-0.1,0.3-0.3,0.3c0,0-0.1,0-0.1,0
		c-0.3,0.1-0.6,0.1-0.8,0.1c-0.6,0-1-0.3-1.2-0.8c-0.1-0.2-0.1-0.5-0.1-0.7c0.1-1.1,0.3-2.1,0.5-3.2C18.4,13.5,18.5,12.8,18.6,12.2z
		"/>
	<path class="st3" d="M29.6,12.6C29.6,12.6,29.6,12.6,29.6,12.6c-0.3,0.5-0.4,1.1-0.5,1.7c0,0.1-0.1,0.2-0.2,0.1
		c-0.2,0-0.4,0-0.5,0.2c-0.1,0.2-0.3,0.4-0.3,0.6c-0.2,0.4-0.2,0.8-0.3,1.3c-0.1,0.7-0.2,1.5-0.4,2.2c0,0.1-0.1,0.2-0.2,0.1
		c-0.1,0-0.1,0-0.2,0c-0.4,0-0.8,0-1.2,0c-0.1,0-0.1,0-0.1-0.1c0.2-1.1,0.4-2.1,0.5-3.2c0.1-0.8,0.2-1.5,0.4-2.3c0,0,0-0.1,0-0.1
		c0.1-0.4,0.1-0.4,0.5-0.4c0.3,0,0.6,0,0.9,0c0.2,0,0.2,0.1,0.2,0.2c0,0.2-0.1,0.4-0.1,0.6C28.5,12.9,28.9,12.4,29.6,12.6z"/>
	<path class="st4" d="M28.1,15.1c0-0.2,0.1-0.4,0.3-0.6c0.1-0.1,0.3-0.2,0.5-0.2c0.1,0,0.2,0,0.2-0.1c0.1-0.6,0.3-1.1,0.5-1.6
		c0.1,0.1,0.2,0,0.3-0.1c0.3-0.3,0.6-0.6,0.9-0.7c-0.2,0.2-0.4,0.4-0.5,0.6c-1,1.4-1.2,3-0.8,4.7c0.3,1,1,1.6,2,1.8
		c0.6,0.1,1.1,0,1.7-0.1c-0.1,0.4-0.1,0.4-0.5,0.5c-0.5,0.1-1.1,0.2-1.6,0.1c-0.7-0.1-1.3-0.5-1.7-1.1c-0.6-0.9-0.7-1.8-0.6-2.8
		c0-0.1,0-0.2,0-0.3c0-0.2,0-0.3-0.3-0.3C28.4,14.9,28.2,15,28.1,15.1z"/>
	<path class="st4" d="M20.4,17.5c0-0.1,0.1-0.2,0-0.2c-0.1-1.1,0-2.1,0.6-3c0.1-0.2,0.2-0.4,0.4-0.5c-0.2,0.4-0.4,0.9-0.5,1.4
		c-0.1,0.6-0.1,1.3,0,1.9c0.2,1,0.9,1.6,1.9,1.8c0.7,0.1,1.4,0.1,2.1-0.1c0,0.1,0,0.2,0,0.3c0,0.1,0,0.1-0.1,0.1
		c-1.1,0.3-2.2,0.4-3.2-0.1c-0.6-0.3-0.9-0.8-1.1-1.3C20.4,17.6,20.4,17.6,20.4,17.5z"/>
	<path class="st4" d="M2.6,11.7c-0.1,0.5-0.2,1.1-0.3,1.6c-0.3,1.5-0.5,3.1-0.8,4.6c0,0.3-0.1,0.5-0.1,0.8c0,0.1,0,0.1,0.1,0.1
		c0.4,0,0.9,0,1.3,0c-0.2,0-0.2,0-0.3,0.2c-0.1,0.3,0,0.3-0.3,0.3c-0.4,0-0.7,0-1.1,0C1,19.2,1,19.2,1,19c0.1-0.6,0.2-1.1,0.3-1.7
		c0.2-1.1,0.4-2.3,0.6-3.4c0.1-0.7,0.2-1.4,0.4-2.1c0-0.1,0.1-0.1,0.1-0.1C2.4,11.7,2.5,11.7,2.6,11.7z"/>
	<path class="st4" d="M18.6,12.2c-0.1,0.7-0.2,1.3-0.3,2c-0.2,1.1-0.4,2.1-0.5,3.2c0,0.3,0,0.5,0.1,0.7c0.2,0.5,0.6,0.8,1.2,0.8
		c0.3,0,0.6,0,0.8-0.1c0,0.4,0,0.4-0.4,0.5c-0.4,0.1-0.8,0.2-1.2,0.1c-0.5-0.1-0.9-0.5-0.9-1.1c0-0.1,0-0.3,0-0.5
		c0.2-0.4,0.2-0.9,0.2-1.4c0.1-0.8,0.3-1.7,0.4-2.5c0.1-0.5,0.2-1.1,0.3-1.6C18.3,12.1,18.5,12.2,18.6,12.2z"/>
	<path class="st4" d="M8.9,15.9c-0.1,0.3-0.3,0.6-0.3,1c0,0.4,0,0.7,0.1,1c0.2,0.6,0.7,0.9,1.3,0.9c0.7,0,1.2-0.1,1.7-0.7
		c0,0.2,0,0.3,0,0.4c0,0.1,0,0.1,0.1,0.1c0.3,0,0.6,0,0.9,0c0,0,0,0.1,0,0.1c-0.1,0.4-0.1,0.4-0.4,0.4c-0.3,0-0.6,0-0.9,0
		c-0.1,0-0.2,0-0.1-0.2c0-0.1,0-0.3,0-0.4c-0.1,0-0.1,0.1-0.2,0.2c-0.6,0.5-1.3,0.6-2,0.4c-0.6-0.2-0.8-0.7-0.9-1.3
		c0-0.2,0-0.5,0-0.7c0-0.1,0-0.2,0-0.3c0.1-0.1,0.1-0.2,0.1-0.3C8.5,16.3,8.6,16.1,8.9,15.9z"/>
	<path class="st4" d="M26.6,13.1c-0.1,0.8-0.2,1.6-0.4,2.3c-0.2,1.1-0.3,2.1-0.5,3.2c0,0.1,0,0.1,0.1,0.1c0.4,0,0.8,0,1.2,0
		c0,0,0,0.1,0,0.1c-0.1,0.4-0.1,0.4-0.5,0.4c-0.3,0-0.7,0-1,0c-0.2,0-0.2,0-0.2-0.2c0.1-0.8,0.3-1.5,0.4-2.3
		c0.2-0.9,0.3-1.9,0.5-2.8c0-0.2,0.1-0.4,0.1-0.6c0-0.2,0.1-0.2,0.2-0.2C26.5,13.1,26.6,13.1,26.6,13.1z"/>
	<path class="st4" d="M3.5,15.4c0.1-0.7,0.2-1.5,0.4-2.2c0,0,0.1,0,0.1,0c0,0.5,0,1.1,0,1.6C4,16.1,4,17.3,4,18.6
		c0,0.2,0,0.2,0.2,0.2c0.2,0,0.4,0,0.7,0c-0.1,0.1-0.1,0.4-0.2,0.4c-0.1,0.1-0.3,0-0.5,0c-0.2,0-0.4,0.1-0.5,0
		c-0.1-0.1-0.1-0.3-0.1-0.5C3.6,17.6,3.6,16.5,3.5,15.4z"/>
	<path class="st4" d="M6.5,14.9c0.2-0.5,0.4-1.1,0.5-1.6c0,0,0,0,0.1,0c0,0.3-0.1,0.6-0.1,1c-0.2,1.4-0.5,2.9-0.7,4.3
		c0,0.1,0,0.1,0.1,0.1c0.5,0,0.9,0,1.4,0c-0.2,0-0.2,0-0.3,0.2c0,0.3,0,0.3-0.3,0.3c-0.4,0-0.8,0-1.2,0c-0.1,0-0.2,0-0.1-0.2
		c0.2-1.3,0.4-2.7,0.6-4C6.5,15,6.5,15,6.5,14.9z"/>
	<path class="st4" d="M14.2,13.5c-0.2,0.4-0.2,0.8-0.2,1.2c0,0.6,0.3,1,0.8,1.4c0.2,0.1,0.4,0.2,0.7,0.4c0.1,0,0.1,0.1,0.2,0.1
		c0.2,0.1,0.3,0.3,0.2,0.5c0,0.2-0.2,0.4-0.4,0.4c0-0.2-0.1-0.3-0.3-0.4c-0.3-0.2-0.6-0.3-0.8-0.5c-0.5-0.3-0.8-0.8-0.9-1.4
		c0-0.3,0.1-0.6,0.1-0.9C13.8,14,14,13.7,14.2,13.5z"/>
	<path class="st4" d="M13.5,17.8c0,0.2-0.1,0.5-0.1,0.7c0,0.1,0,0.2,0.1,0.2c0.9,0.2,1.7,0.2,2.6,0c0.2,0,0.5-0.2,0.7-0.3
		c-0.1,0.3-0.3,0.4-0.5,0.5c-0.3,0.2-0.7,0.3-1.1,0.3c-0.7,0-1.3,0-2-0.1c-0.2,0-0.3-0.1-0.2-0.3c0,0,0-0.1,0-0.2
		c0.1-0.2,0.1-0.4,0.1-0.6c0-0.1,0-0.2,0.1-0.4C13.3,17.8,13.4,17.8,13.5,17.8z"/>
	<path class="st4" d="M9.5,13.2c-0.1,0.3-0.1,0.6-0.2,1c0.3-0.1,0.6-0.2,1-0.2c0.4,0,0.8-0.1,1.2,0c0.6,0.1,0.6,0.4,0.5,0.8
		c0,0.1,0,0.1-0.1,0.1c-0.1,0-0.2,0-0.3,0c-0.1-0.3-0.3-0.4-0.6-0.4c-0.7,0-1.4,0-2.1,0.3c0-0.3,0.1-0.6,0.1-0.9c0-0.1,0-0.1,0-0.2
		C9.1,13.4,9.3,13.2,9.5,13.2z"/>
	<path class="st4" d="M22.4,16.7c-0.1-0.5-0.1-0.5,0.4-0.5c0.8,0,1.7,0,2.5,0c0,0,0,0.1,0,0.1c-0.1,0.4-0.1,0.4-0.5,0.4
		C24,16.7,23.2,16.7,22.4,16.7z"/>
	<path class="st4" d="M6.5,11.7C6,13,5.6,14.4,5.1,15.7c0,0,0,0,0,0c0-0.3,0-0.6,0-0.9c0.2-0.7,0.5-1.4,0.7-2.1
		C5.9,12.5,6,12.2,6.1,12C6.2,11.7,6.2,11.7,6.5,11.7z"/>
	<path class="st4" d="M15.7,14.4c0-0.3,0.1-0.4,0.4-0.5c0.2-0.1,0.5-0.1,0.7,0c0.2,0,0.3,0,0.5,0c0,0.1,0,0.1,0,0.2
		c-0.1,0.4-0.1,0.3-0.4,0.3C16.5,14.4,16.1,14.4,15.7,14.4z"/>
	<path class="st4" d="M19.8,14.6c0-0.5,0-0.5,0.6-0.5c0,0,0.1,0,0.1,0c0,0.2,0,0.4-0.1,0.5C20.3,14.7,20.1,14.6,19.8,14.6
		C19.9,14.6,19.8,14.6,19.8,14.6z"/>
	<path class="st4" d="M21.4,13.7c0,0.1,0,0.1-0.1,0.1C21.3,13.7,21.4,13.7,21.4,13.7z"/>
	<path class="st4" d="M16.8,18.5C16.8,18.4,16.9,18.4,16.8,18.5C16.9,18.4,16.9,18.5,16.8,18.5z"/>
	<path class="st3" d="M43.1,13.4c0.1-0.1,0.3-0.3,0.4-0.4c0.7-0.6,1.6-0.7,2.5,0c0.1,0.1,0.2,0.2,0.3,0.3c0.1-0.5,0.2-1.1,0.2-1.6
		c0,0,0,0,0-0.1c0-0.1,0-0.3,0.1-0.4c0.1-0.1,0.3,0,0.4,0c0.3,0,0.7,0,1,0c0.1,0,0.2,0,0.1,0.2c-0.3,2-0.6,4-1,6
		c-0.1,0.4-0.1,0.8-0.2,1.2c0,0.2-0.1,0.2-0.3,0.2c0,0-0.1,0-0.1,0c-0.3,0-0.7,0-1,0c-0.1,0-0.2,0-0.1-0.2c0-0.1,0.1-0.2,0-0.3
		c-0.1,0-0.1,0-0.1,0.1c-1.1,1-2.5,0.6-3.1-0.7c-0.3-0.8-0.3-1.7-0.1-2.5C42.4,14.5,42.7,13.9,43.1,13.4z M44.2,14.6
		C44.2,14.6,44.2,14.6,44.2,14.6c-0.2,0.3-0.3,0.6-0.3,1c0,0.4-0.1,0.8,0.1,1.2c0.2,0.5,0.9,0.6,1.3,0.2c0.1,0,0.2-0.1,0.2-0.2
		c0.5-0.7,0.6-1.5,0.4-2.3c-0.1-0.3-0.2-0.5-0.5-0.5C44.9,13.9,44.4,14.1,44.2,14.6L44.2,14.6z"/>
	<path class="st3" d="M38.7,18.7c-0.2,0-0.4,0-0.6,0c-0.2,0-0.4,0-0.6,0c-0.1,0-0.2,0-0.1-0.1c0-0.1,0-0.3,0-0.5
		c-0.2,0.3-0.5,0.5-0.8,0.6c0,0-0.1,0-0.1,0.1c-0.3,0.1-0.6,0.1-0.9,0.1c-0.6-0.1-1-0.4-1.2-0.9c-0.2-0.5-0.2-0.9-0.1-1.4
		c0.1-0.4,0.3-0.7,0.5-1c0.4-0.3,0.8-0.5,1.3-0.6c0.3-0.1,0.5,0,0.8-0.1c0.2,0,0.4,0,0.6,0c0,0,0.1,0,0.1,0c0.2-0.3,0-0.7-0.4-0.8
		c-0.3-0.1-0.6-0.1-0.9-0.1c-0.5,0-1,0.1-1.5,0.3c0.1-0.4,0.1-0.7,0.2-1.1c0-0.3,0.2-0.3,0.4-0.4c0.7-0.2,1.4-0.3,2.2-0.2
		c0.9,0.1,1.5,0.7,1.6,1.6c0,0.1,0,0.1,0,0.2c0,0.1,0,0.1,0,0.2c-0.1,0.6-0.2,1.2-0.3,1.8c-0.1,0.8-0.2,1.5-0.3,2.3
		C38.8,18.6,38.8,18.7,38.7,18.7z M36.5,17.5c0.2,0,0.4-0.1,0.5-0.2c0.4-0.3,0.5-0.7,0.5-1.2c0-0.1-0.1-0.1-0.1-0.1
		c-0.3,0-0.5,0-0.8,0c-0.3,0.1-0.6,0.2-0.7,0.5c-0.1,0.3-0.2,0.5,0,0.8C36,17.5,36.2,17.5,36.5,17.5z"/>
	<path class="st3" d="M33.2,18.7c-0.5,0.1-1.1,0.2-1.7,0.1c-1.1-0.2-1.8-0.8-2-1.8c-0.4-1.7-0.2-3.2,0.8-4.7
		c0.2-0.2,0.4-0.4,0.5-0.6c0.5-0.3,1-0.6,1.6-0.7c0.8-0.1,1.5,0.1,2.2,0.3c0.1,0,0.1,0.1,0.1,0.2c-0.1,0.5-0.1,0.9-0.2,1.4
		c0,0.2-0.1,0.2-0.2,0.1c0,0-0.1-0.1-0.2-0.1c-0.1-0.1-0.3-0.1-0.4-0.2c-0.5-0.2-1.1-0.2-1.6,0.1c-0.2,0.1-0.5,0.3-0.6,0.6
		c-0.1,0-0.1,0.1-0.1,0.1c-0.5,0.8-0.6,1.7-0.4,2.6c0.2,0.9,1,1.3,1.9,1.1c0.2-0.1,0.4-0.1,0.6-0.2c0.1,0,0.2-0.1,0.3-0.1
		c-0.1,0.5-0.1,0.9-0.2,1.4C33.6,18.6,33.4,18.7,33.2,18.7z"/>
	<path class="st3" d="M39.9,13.1C39.9,13.1,39.9,13,39.9,13.1c0.1-0.5,0.1-0.5,0.5-0.5c0.3,0,0.6,0,0.9,0c0.1,0,0.2,0,0.1,0.2
		c0,0.2-0.1,0.4-0.1,0.7c0.4-0.5,0.8-1,1.5-0.9c-0.2,0.5-0.4,1-0.5,1.6c0,0.2-0.1,0.2-0.3,0.2c-0.2,0-0.4,0.1-0.5,0.3
		c-0.1,0.2-0.2,0.4-0.3,0.7c-0.2,0.5-0.2,1-0.3,1.5c-0.1,0.6-0.2,1.2-0.3,1.8c0,0.1-0.1,0.2-0.2,0.2c-0.1,0-0.1,0-0.2,0
		c-0.4,0-0.7,0-1.1,0c-0.1,0-0.2,0-0.1-0.1c0.2-0.9,0.3-1.8,0.5-2.8C39.6,14.9,39.8,14,39.9,13.1z"/>
	<path class="st4" d="M41.3,15.3c0-0.3,0.1-0.5,0.3-0.7c0.1-0.2,0.3-0.3,0.5-0.3c0.2,0,0.2,0,0.3-0.2c0.2-0.3,0.4-0.6,0.7-0.8
		c-0.4,0.5-0.7,1.1-0.8,1.7c-0.2,0.8-0.2,1.7,0.1,2.5c0.5,1.3,2,1.7,3.1,0.7c0,0,0-0.1,0.1-0.1c0,0.1,0,0.2,0,0.3
		c0,0.1,0,0.2,0.1,0.2c0.3,0,0.7,0,1,0c-0.1,0.5-0.1,0.5-0.5,0.5c-0.3,0-0.6,0-0.9,0c-0.1,0-0.1,0-0.1-0.1c0-0.1,0-0.2,0-0.4
		c-0.3,0.3-0.6,0.4-0.9,0.5c-1,0.3-1.9-0.2-2.3-1.1c-0.3-0.7-0.3-1.4-0.2-2.1c0-0.3,0.1-0.7,0.2-1C41.7,14.9,41.5,15.1,41.3,15.3z"
		/>
	<path class="st4" d="M33.6,18.4c0.1-0.5,0.1-0.9,0.2-1.4c-0.1,0-0.2,0.1-0.3,0.1c0.1-0.8,0.6-1.3,1.3-1.5c-0.2,0.3-0.5,0.6-0.5,1
		c-0.1,0.5-0.1,0.9,0.1,1.4c0.2,0.6,0.6,0.9,1.2,0.9c0.3,0,0.6,0,0.9-0.1C35.6,19.7,34.2,19.5,33.6,18.4z"/>
	<path class="st4" d="M39.9,13.1c-0.1,0.9-0.3,1.8-0.4,2.8c-0.1,0.9-0.3,1.8-0.5,2.8c0,0.1,0,0.1,0.1,0.1c0.4,0,0.7,0,1.1,0
		c0,0.5,0,0.5-0.5,0.5c-0.4,0-0.7,0-1.1,0c-0.1,0-0.1,0-0.1-0.1c0-0.1,0-0.2,0.1-0.4c0.1,0,0.1-0.1,0.1-0.2c0.1-0.8,0.2-1.5,0.3-2.3
		c0.1-0.6,0.2-1.2,0.3-1.8c0-0.1,0-0.1,0-0.2c0.1-0.3,0.1-0.6,0.2-0.9C39.6,13.2,39.6,13,39.9,13.1C39.9,13.1,39.9,13.1,39.9,13.1z"
		/>
	<path class="st4" d="M35.2,13.1c-0.1,0.4-0.1,0.7-0.2,1.1c0.5-0.2,1-0.2,1.5-0.3c0.3,0,0.6,0,0.9,0.1c0.3,0.1,0.5,0.5,0.4,0.8
		c0,0.1-0.1,0-0.1,0c-0.2,0-0.4,0-0.6,0c-0.1-0.3-0.3-0.4-0.6-0.4c-0.4,0-0.7,0-1.1,0c-0.3,0-0.7,0.1-1,0.2c0-0.3,0.1-0.6,0.1-0.9
		c0-0.1,0-0.2,0-0.3c0-0.2,0.1-0.3,0.3-0.4C35,13.2,35.1,13.1,35.2,13.1z"/>
	<path class="st4" d="M31.6,13.5c0.1-0.3,0.3-0.4,0.6-0.6c0.5-0.3,1-0.3,1.6-0.1c0.1,0,0.3,0.1,0.4,0.2c0,0.2-0.1,0.4-0.1,0.6
		C33.2,13.1,32.4,12.9,31.6,13.5z"/>
	<path class="st4" d="M36.6,18.7c0.3-0.1,0.6-0.3,0.8-0.6c0,0.2,0,0.3,0,0.5c0,0.1,0,0.1,0.1,0.1c0.2,0,0.4,0,0.6,0c0,0,0,0,0,0.1
		c-0.1,0.4-0.1,0.4-0.5,0.4c-0.3,0-0.5,0-0.8,0c-0.2,0-0.2-0.1-0.2-0.2C36.6,18.9,36.6,18.8,36.6,18.7z"/>
	<path class="st4" d="M46.6,11.7c-0.1,0.5-0.2,1.1-0.2,1.6c-0.1-0.1-0.2-0.2-0.3-0.3c0-0.4,0.1-0.7,0.1-1.1c0-0.2,0.1-0.3,0.3-0.2
		C46.5,11.7,46.5,11.7,46.6,11.7z"/>
	<path class="st3" d="M48.2,18.8c-0.3,0-0.5-0.2-0.5-0.5c0-0.3,0.2-0.5,0.5-0.5c0.3,0,0.5,0.2,0.5,0.5
		C48.7,18.6,48.5,18.8,48.2,18.8z M48.2,18.7c0.2,0,0.4-0.2,0.4-0.4c0-0.2-0.2-0.4-0.4-0.4c-0.2,0-0.4,0.2-0.4,0.4
		C47.8,18.5,48,18.7,48.2,18.7z"/>
	<path class="st0" d="M13.5,17.8c-0.1,0-0.2-0.1-0.3-0.1c0.1-0.9,0.3-1.7,0.4-2.6c0,0.6,0.3,1.1,0.9,1.4c0.3,0.2,0.6,0.3,0.8,0.5
		c0.2,0.1,0.3,0.2,0.3,0.4c-0.4,0.1-0.9,0.1-1.3,0c-0.2,0-0.3-0.1-0.5-0.1c-0.1,0-0.2,0-0.2,0.1C13.6,17.5,13.5,17.7,13.5,17.8z"/>
	<path class="st0" d="M11.2,17.4c-0.2,0.2-0.6,0.2-0.8,0c-0.2-0.2-0.3-0.5-0.2-0.8c0.3-0.2,0.7-0.2,1-0.2c0.1,0,0.2,0.1,0.2,0.2
		C11.3,16.9,11.3,17.1,11.2,17.4z"/>
	<path class="st4" d="M11.2,17.4c0.1-0.2,0.1-0.5,0.2-0.7c0-0.1,0-0.2-0.2-0.2c-0.3,0-0.7,0-1,0.2c0.1-0.3,0.3-0.4,0.5-0.5
		c0.3-0.1,0.7-0.1,1-0.1c0.1,0,0.2,0.1,0.2,0.2c-0.1,0.4-0.2,0.8-0.5,1.1C11.3,17.3,11.3,17.4,11.2,17.4z"/>
	<path class="st4" d="M22.6,14.5c0.2-0.4,0.6-0.7,1-0.6c0.3,0.1,0.5,0.2,0.6,0.6c0,0,0,0,0,0c0.1,0.5,0.1,0.5-0.4,0.5
		c-0.1-0.4-0.3-0.6-0.7-0.6C23,14.3,22.8,14.4,22.6,14.5z"/>
	<path class="st0" d="M22.6,14.5c0.2-0.1,0.3-0.1,0.5-0.1c0.4,0,0.6,0.2,0.7,0.6c-0.4,0-0.8,0-1.2,0c-0.1,0-0.1,0-0.1-0.1
		C22.5,14.7,22.6,14.6,22.6,14.5z"/>
	<path class="st1" d="M45.2,17.1c-0.4,0.4-1,0.3-1.3-0.2c-0.2-0.4-0.2-0.8-0.1-1.2c0-0.3,0.1-0.7,0.3-0.9c0,0,0,0,0,0c0,0,0,0,0,0
		c0,0,0,0,0.1,0c0.6-0.3,1.1,0,1.2,0.6C45.6,15.9,45.5,16.5,45.2,17.1z"/>
	<path class="st4" d="M45.2,17.1c0.3-0.6,0.4-1.2,0.2-1.9c-0.1-0.6-0.6-0.9-1.2-0.6c0,0,0,0-0.1,0c0.2-0.5,0.7-0.7,1.1-0.6
		c0.3,0.1,0.4,0.3,0.5,0.5c0.2,0.8,0.1,1.6-0.4,2.3C45.4,16.9,45.4,17,45.2,17.1z"/>
	<path class="st4" d="M44.2,14.6C44.2,14.6,44.2,14.7,44.2,14.6C44.2,14.6,44.2,14.6,44.2,14.6z"/>
	<path class="st4" d="M35.9,16.5c0.1-0.3,0.4-0.4,0.7-0.5c0.2-0.1,0.5-0.1,0.8,0c0.1,0,0.1,0,0.1,0.1c0,0.5-0.2,0.9-0.5,1.2
		c-0.2,0.1-0.3,0.2-0.5,0.2c0.2-0.3,0.2-0.6,0.2-0.9c0-0.1,0-0.2-0.1-0.2C36.3,16.5,36.1,16.5,35.9,16.5z"/>
	<path class="st1" d="M35.9,16.5c0.2,0,0.4,0,0.6,0c0.1,0,0.2,0.1,0.1,0.2c0,0.3-0.1,0.6-0.2,0.9c-0.2,0-0.4,0-0.6-0.2
		C35.8,17,35.8,16.8,35.9,16.5z"/>
	<path class="st1" d="M48.2,18.7c-0.2,0-0.4-0.2-0.4-0.4c0-0.2,0.2-0.4,0.4-0.4c0.2,0,0.4,0.2,0.4,0.4
		C48.6,18.5,48.4,18.7,48.2,18.7z M48.4,18.5C48.4,18.5,48.4,18.5,48.4,18.5C48.4,18.5,48.4,18.5,48.4,18.5
		C48.4,18.5,48.4,18.5,48.4,18.5c0-0.1-0.1-0.2,0-0.3c0,0,0-0.1-0.1-0.1c-0.1,0-0.2-0.1-0.3,0c0,0.1,0,0.3,0,0.5
		c0.1,0,0.1,0,0.1-0.1c0-0.1,0-0.1,0-0.2c0.1,0,0.1,0.1,0.2,0.1C48.3,18.5,48.3,18.6,48.4,18.5z"/>
	<path class="st2" d="M48.4,23.4c-0.1,0-0.1-0.1-0.2-0.2c0,0-0.1-0.1-0.1-0.1c-0.1,0,0,0.1,0,0.1c0,0,0,0.1-0.1,0.1
		c-0.1,0,0-0.1,0-0.1c0-0.1,0-0.1,0-0.2c0-0.2,0.1-0.3,0.3-0.2c0.1,0,0.1,0.1,0.1,0.1C48.3,23.2,48.4,23.3,48.4,23.4z M48.2,23
		c-0.1,0-0.1,0-0.1,0.1c0,0.1,0,0.1,0.1,0.1C48.2,23.1,48.3,23.1,48.2,23C48.3,23,48.3,23,48.2,23z"/>
	<path class="st3" d="M48.4,18.5c-0.1,0-0.1,0-0.1-0.1c0-0.1-0.1-0.1-0.2-0.1c-0.1,0,0,0.1,0,0.2c0,0,0,0-0.1,0.1c0-0.2,0-0.3,0-0.5
		c0-0.1,0.2,0,0.3,0c0.1,0,0.1,0.1,0.1,0.1C48.3,18.3,48.4,18.4,48.4,18.5L48.4,18.5z M48.3,18.2c0-0.1-0.1-0.1-0.1-0.1
		c-0.1,0-0.1,0-0.1,0.1c0,0.1,0.1,0.1,0.1,0.1C48.3,18.3,48.3,18.2,48.3,18.2z"/>
	<path class="st3" d="M48.4,18.5C48.4,18.5,48.4,18.5,48.4,18.5C48.4,18.5,48.4,18.5,48.4,18.5C48.4,18.5,48.4,18.5,48.4,18.5
		C48.4,18.5,48.4,18.5,48.4,18.5z"/>
	<path class="st1" d="M48.3,18.2c0,0.1-0.1,0.1-0.1,0.1c0,0-0.1,0-0.1-0.1c0-0.1,0-0.1,0.1-0.1C48.2,18.1,48.3,18.1,48.3,18.2z"/>
</g>
</svg>
