<?xml version="1.0" encoding="utf-8"?>
<!-- Generator: Adobe Illustrator 22.0.1, SVG Export Plug-In . SVG Version: 6.00 Build 0)  -->
<svg version="1.1" id="Layer_1" xmlns="http://www.w3.org/2000/svg" xmlns:xlink="http://www.w3.org/1999/xlink" x="0px" y="0px"
	 viewBox="0 0 17 15" style="enable-background:new 0 0 17 15;" xml:space="preserve">
<style type="text/css">
	.st0{fill:#4A4A4A;}
</style>
<title>island</title>
<desc>Created with Sketch.</desc>
<g id="Symbols">
	<g id="Molecules_x2F_menu" transform="translate(-553.000000, -11.000000)">
		<g id="island" transform="translate(553.000000, 11.000000)">
			<path id="Shape" class="st0" d="M17,6.6c0,0,0-0.1,0-0.3c0-1.3-0.6-2-0.9-2.4c-0.3-0.3-0.8-0.6-1.3-0.8c0,0,0.1,0,0.1,0l0,0
				c0,0,1.1-0.5,1.9-0.5c0,0-0.8-0.9-2.3-0.8c-0.3,0-0.7,0.1-1.2,0.3c-0.2-0.7-0.7-1.5-1.9-1.9c-0.4-0.1-1-0.2-1.9,0
				c0,0,1,0.5,1.3,1.2c0,0,0,0,0.1,0.1c0,0,0,0,0,0c0,0,0,0,0,0l-0.1-0.1C10.2,1.1,9.7,1,9,1C8.4,1,7.8,1.1,7.2,1.4
				C7,1.6,6.5,1.9,6.3,2.5c0,0,1.9-0.5,3.2,0.7L8.4,3.3c0,0,0.9,0.7,1.2,1.5c0,0.1,0.1,0.2,0.1,0.3C9.6,5.2,9.3,5.4,9,5.8
				C8.9,6,8.6,6.4,8.3,7c-0.4,0.8-0.8,1.8-1.1,3.1C6.7,8.9,6.1,8.3,5.8,8c0,0,0.2-0.7,0.8-1.2l-0.3,0c-0.2,0-0.4,0-0.6,0.1
				c0,0,0.7-0.9,2.6-0.7c0,0-1.2-1.6-3.2-0.9c0,0,0.3-0.7,0.8-0.9c0,0-2.2-0.3-3,1.3c-0.1,0-0.2-0.1-0.2-0.1
				C2.3,5.4,1.4,5.3,0.3,6.1c0,0,0.7,0,1.2,0.5C1.4,6.6,1.3,6.7,1.2,6.8C0.8,7,0.1,7.7,0,9c0,0,0.9-0.6,1.5-0.8c0,0-1,1.1,0.2,3.1
				c0,0,0.5-1.3,1.3-2c0,0,0,0,0,0c0,0,0.1,0,0.1-0.1c0.1-0.1,0.2-0.1,0.3-0.2c0,0,0,0,0,0c0,0,0.1,0,0.1,0c0,0,0.1,0,0.1,0
				c0,0,0,0,0,0c0.1,0,0.2,0,0.3,0C4,9,4.1,9,4.1,9c0.6,0.5,1,1.4,1.1,2.4c-1.2,0.7-2.1,1.6-2.8,2.8L2,15h1h12.6h1L16,14.2
				c-1.3-2.2-3.6-3.6-6.1-3.8c0.1-1,0.3-2.1,0.9-3.1l0,0l0.1-0.1c0,0,0,0,0-0.1h0l0,0l0,0c0,0,0,0,0,0L11,7l0,0
				c0.2-0.3,0.4-0.6,0.7-0.8c0.1,0,0.2,0,0.4,0c0.7,0,1.7,0.4,2.4,2.1l0.4,0.9c0.2-0.3,0.9-1.2,0.9-2.2c0-0.5-0.1-1-0.3-1.5
				c0,0,0-0.1-0.1-0.1c0.3,0.1,0.5,0.3,0.8,0.5L17,6.6z M15,8.1c-0.9-2.1-2.2-2.5-2.9-2.5c-0.4,0-0.6,0.1-0.6,0.1
				c-1.6,1.3-2,3.6-2,5.2c2.6,0,4.9,1.5,6.2,3.6H2.9c0.7-1.2,1.7-2.1,2.9-2.7c-0.1-1.1-0.5-2.4-1.5-3.2c0,0-0.2-0.1-0.5-0.1
				c-0.6,0-1.5,0.3-2.2,1.8c0,0-0.8-2.1,1.2-2.8c0,0-0.1,0-0.2,0c-0.4,0-1.3,0.1-2.2,0.8c0,0,0.6-1.5,2.3-1.5c0,0-0.5-0.8-1.6-0.8
				c0,0,0.2-0.1,0.5-0.1c0.4,0,1,0.1,1.6,0.6c0,0-0.2-1.5,1.8-1.9c0,0-1.3,0.6-1.1,1.9c0,0,0.8-1.1,2.1-1.1c0.4,0,0.9,0.1,1.5,0.4
				c0,0-0.2-0.1-0.5-0.1C6.4,5.8,5.3,6,5,7.5c0,0,0.2-0.3,0.9-0.5c0,0-0.8,0.5-0.7,1.2c0,0,1.1,0.8,1.8,3.1c0.2-0.1,0.4-0.1,0.6-0.2
				c0.7-4.5,2.8-5.8,2.8-5.8c0.1-1-1-1.6-1-1.6c1,0.2,1.3,0.6,1.3,0.6C10.2,2.4,8.7,2,7.8,2C7.4,2,7.1,2.1,7.1,2.1
				c0.7-0.4,1.4-0.6,2-0.6c1.8,0,2.8,1.5,2.8,1.5c0.3-1.8-1.5-2.6-1.5-2.6C13.1,0.9,12.7,3,12.7,3c0.8-0.6,1.6-0.8,2.2-0.8
				c0.4,0,0.7,0.1,0.7,0.1c-1.4,0.1-2.1,1.1-2.1,1.1c2.3,0,3.1,2,3.1,2c-1.2-1-2.4-1.1-3-1.1c-0.2,0-0.2,0-0.2,0
				C16.1,5.3,15,8.1,15,8.1z"/>
		</g>
	</g>
</g>
</svg>
