<?xml version="1.0" encoding="utf-8"?>
<!-- Generator: Adobe Illustrator 23.0.1, SVG Export Plug-In . SVG Version: 6.00 Build 0)  -->
<svg version="1.1" id="Layer_1" xmlns="http://www.w3.org/2000/svg" xmlns:xlink="http://www.w3.org/1999/xlink" x="0px" y="0px"
	 viewBox="0 0 33.26 53.04" style="enable-background:new 0 0 33.26 53.04;" xml:space="preserve">
<style type="text/css">
	.st0{fill:#4DDFF7;}
</style>
<title>HRC_icons_v0004</title>
<g>
	<path class="st0" d="M16.63,21.99c6.47,0,11.74-4.93,11.74-10.99c0-6.07-5.27-11-11.74-11C10.16,0,4.89,4.93,4.89,11
		C4.89,17.06,10.16,21.99,16.63,21.99z M6.39,11c0-5.24,4.59-9.5,10.24-9.5c5.65,0,10.24,4.26,10.24,9.5
		c0,5.23-4.59,9.49-10.24,9.49C10.98,20.49,6.39,16.23,6.39,11z"/>
	<path class="st0" d="M24.57,22.92l-1.82,0.01c-0.1-0.02-0.2-0.02-0.34,0.01c-3.73,1.49-7.83,1.49-11.59-0.01
		c-0.1-0.02-0.2-0.02-0.25-0.01H8.69C3.9,22.92,0,26.41,0,30.69v19.87c0,0.76,0.22,1.5,0.63,2.14c0.14,0.22,0.38,0.34,0.63,0.34
		c0,0,0,0,0,0h30.72c0,0,0,0,0,0c0.26,0,0.5-0.13,0.64-0.34c0.41-0.64,0.63-1.38,0.63-2.14V30.69
		C33.26,26.41,29.36,22.92,24.57,22.92z M25.83,38.66c-0.41,0.01-0.74,0.33-0.75,0.75l0,12.1H8.05V39.34c0-0.41-0.34-0.75-0.76-0.75
		c-0.41,0.01-0.74,0.34-0.74,0.75v12.17H1.71c-0.13-0.3-0.2-0.62-0.21-0.95V30.69c0-3.46,3.23-6.27,7.19-6.27h1.73
		c4,1.57,8.41,1.57,12.41,0h1.73c3.96,0,7.19,2.81,7.19,6.27v19.87c0,0.33-0.07,0.65-0.21,0.95h-4.96v-12.1
		C26.59,39,26.25,38.66,25.83,38.66z"/>
	<path class="st0" d="M9.08,9.82l0.17,0.01c0,0,0,0,0.01,0c0.37,0,0.68-0.27,0.73-0.63c0.35-2.02,1.85-3.69,3.81-4.24
		c0.4-0.1,0.64-0.5,0.54-0.9c-0.1-0.4-0.5-0.65-0.91-0.55c-2.56,0.7-4.5,2.84-4.93,5.45C8.43,9.36,8.68,9.74,9.08,9.82z"/>
	<circle class="st0" cx="9.05" cy="11.9" r="0.75"/>
</g>
</svg>
