<?xml version="1.0" encoding="UTF-8"?>
<svg width="16px" height="16px" viewBox="0 0 16 16" version="1.1" xmlns="http://www.w3.org/2000/svg" xmlns:xlink="http://www.w3.org/1999/xlink">
    <!-- Generator: Sketch 54 (76480) - https://sketchapp.com -->
    <title>Icon</title>
    <desc>Created with Sketch.</desc>
    <defs>
        <path d="M3.10048996,5.13080127 C2.82848996,4.57880127 3.13248996,3.92480127 3.72548996,3.76180127 L6.43348996,3.01780127 C6.65948996,2.95580127 6.89848996,3.05980127 7.00748996,3.26680127 L8.86348996,6.77780127 C8.97848996,6.99480127 8.91848996,7.26380127 8.72248996,7.41080127 L7.12948996,8.60780127 C8.92848996,11.2328013 10.70849,12.9678013 13.12949,14.6078013 L14.30349,13.0078013 C14.45249,12.8058013 14.72749,12.7448013 14.94749,12.8658013 L18.64449,14.8948013 C18.84949,15.0068013 18.94949,15.2468013 18.88349,15.4718013 L18.12549,18.0818013 C17.94949,18.6908013 17.25749,18.9848013 16.69049,18.6998013 C15.06849,17.8848013 13.79049,17.3008013 12.05449,16.0278013 C10.26449,14.7668013 7.32848996,11.9298013 5.74248996,9.71580127 C4.71048996,8.27480127 3.68848996,6.32080127 3.10048996,5.13080127 Z" id="path-1"></path>
    </defs>
    <g id="Symbols" stroke="none" stroke-width="1" fill="none" fill-rule="evenodd">
        <g id="Atom-/-Icons-/-Basic-/-Call" transform="translate(-3.000000, -3.000000)">
            <mask id="mask-2" fill="white">
                <use xlink:href="#path-1"></use>
            </mask>
            <use id="Icon" fill="#54B4CF" xlink:href="#path-1"></use>
        </g>
    </g>
</svg>