<?xml version="1.0" encoding="utf-8"?>
<!-- Generator: Adobe Illustrator 22.0.1, SVG Export Plug-In . SVG Version: 6.00 Build 0)  -->
<svg version="1.1" id="Layer_1" xmlns="http://www.w3.org/2000/svg" xmlns:xlink="http://www.w3.org/1999/xlink" x="0px" y="0px"
	 viewBox="0 0 36.3 32.8" style="enable-background:new 0 0 36.3 32.8;" xml:space="preserve">
<style type="text/css">
	.st0{fill:#4A4A4A;}
</style>
<g id="rH7UNr_1_">
	<g>
		<path class="st0" d="M19.7,17.8c0.2-0.1,0.4-0.3,0.6-0.4c0.6-0.6,1-1.3,1.1-2.1c0.1-0.2,0.1-0.5,0.1-0.7c0-0.1,0-0.1,0.1-0.1
			c0.6-0.3,1.2-0.5,1.8-0.8c0,0,0,0,0,0c0,0.1,0,0.2,0,0.2c0.1,1.1,0,2.1-0.4,3.1c-0.3,1-0.8,1.8-1.6,2.5c-0.3,0.3-0.6,0.5-1,0.7
			c-0.1,0-0.1,0.1-0.1,0.2c0.2,0.8,0.5,1.5,0.7,2.3c0,0,0,0.1,0,0.1c0.1,0,0.1,0,0.2-0.1c0.9-0.5,1.7-1.3,2.2-2.2
			c0.5-0.9,0.9-1.8,1.1-2.8c0.2-0.8,0.3-1.6,0.3-2.5c0-0.8,0-1.5,0-2.3c0-0.1,0-0.3,0-0.4c0-0.1,0-0.1,0.1-0.2
			c0.5-0.3,1-0.5,1.6-0.8c0.2-0.1,0.3-0.2,0.5-0.2c0,0,0,0.1,0.1,0.1c0.2,1,0.3,2,0.3,3.1c-0.1,1.9-0.5,3.8-1.3,5.6
			c0,0-0.1,0.1,0,0.1c0.1-0.1,0.2-0.1,0.2-0.2c1.3-1.2,2.4-2.7,3.1-4.3c0.6-1.3,1-2.7,1.2-4.1c0.1-0.8,0.2-1.6,0.2-2.4
			C30.9,9,31,9,31,8.9c0.7-0.5,1.4-0.9,2.1-1.4c0,0,0,0,0.1,0c0,0.1,0,0.2,0,0.3c0.1,0.8,0,1.7,0,2.5c-0.1,1.2-0.3,2.4-0.6,3.6
			c-0.5,1.8-1.2,3.5-2.3,5.1c-1.3,1.9-3,3.5-5,4.6c-1.6,0.9-3.3,1.6-5.1,2.1c-0.9,0.2-1.8,0.4-2.7,0.6c-1.2,0.2-2.4,0.2-3.6,0.2
			c-3-0.2-5.7-1.1-8.2-2.7c-2.2-1.5-4-3.4-5.4-5.7c-0.1-0.1-0.1-0.2-0.2-0.3c0,0,0.1,0,0.1,0c0.8,0,1.6-0.1,2.4-0.1
			c0.1,0,0.1,0,0.2,0.1c0.8,1.2,1.9,2.3,3,3.2c1.3,1.1,2.8,1.9,4.4,2.5c0.8,0.3,1.6,0.5,2.5,0.6c0,0,0.1,0,0.1,0
			c-2.7-1.6-4.6-3.7-5.7-6.6c0.3,0,0.6-0.1,0.9-0.1c0.4-0.1,0.9-0.1,1.3-0.2c0,0,0,0,0,0c0.2,0,0.2,0,0.3,0.2c0.9,1.6,1.9,3,3.3,4.2
			c0.8,0.7,1.8,1.3,2.8,1.7c0.8,0.3,1.6,0.4,2.4,0.4c0.1,0,0.2,0,0.4,0c0,0,0,0,0,0c0-0.1,0-0.1-0.1-0.2c-0.2-0.7-0.4-1.4-0.7-2.1
			c0-0.1,0-0.1-0.2-0.1c-1.7,0.2-3.1-0.4-4.4-1.4c-0.7-0.6-1.3-1.4-1.8-2.2c0,0-0.1-0.1-0.1-0.1c0.1-0.1,0.2-0.1,0.2-0.1
			c0.6-0.1,1.2-0.2,1.8-0.4c0.1,0,0.2,0,0.2,0.1c0.5,0.6,1.1,1.1,1.8,1.4c0.4,0.2,0.9,0.3,1.4,0.2c0.1,0,0.1,0,0.1-0.2
			c-0.3-0.8-0.5-1.7-0.8-2.5c-0.1-0.2-0.1-0.2,0.1-0.2c0.7-0.2,1.4-0.4,2-0.6c0.2,0,0.2,0,0.2,0.1c0.3,0.8,0.5,1.7,0.8,2.5
			C19.7,17.6,19.7,17.7,19.7,17.8z"/>
		<path class="st0" d="M8.4,5.9C8.1,6.1,7.8,6.3,7.5,6.6c-1.3,1.2-2.4,2.6-3.3,4.1c-0.7,1.2-1.3,2.6-1.6,4c0,0.2-0.1,0.4-0.1,0.6
			c0,0.1,0,0.1-0.1,0.1c-0.4,0-0.8,0-1.2,0c-0.3,0-0.7,0-1,0c-0.1,0-0.1,0-0.1-0.1c0.2-1.3,0.5-2.6,1.1-3.8c1.3-3.1,3.4-5.7,6.2-7.7
			c1.8-1.3,3.8-2.3,5.9-3c1-0.3,2-0.6,3-0.7C17.3,0.1,18.5,0,19.6,0c2.9,0.1,5.6,0.7,8.1,2c1.6,0.9,3.1,2,4.4,3.3c0,0,0.1,0,0.1,0.1
			c0,0-0.1,0.1-0.1,0.1c-0.6,0.4-1.2,0.8-1.8,1.2c0,0-0.1,0-0.1,0.1c0,0-0.1,0-0.1,0c-0.1-0.1-0.1-0.2-0.2-0.2C29.3,6,28.7,5.5,28,5
			c-1.4-1-3-1.6-4.7-2.1c-1-0.3-2.1-0.5-3.2-0.7c-0.1,0-0.1,0-0.2,0c0,0,0,0,0,0c0,0,0,0,0,0c0,0,0,0,0,0c0,0.1,0.1,0.1,0.2,0.1
			c1.8,0.9,3.3,2.1,4.6,3.6c0.7,0.9,1.3,1.8,1.7,2.8c0,0,0,0,0,0.1c0,0.1,0.1,0.1-0.1,0.2c-0.6,0.3-1.3,0.7-1.9,1
			c-0.1,0.1-0.1,0.1-0.2-0.1c-0.8-1.6-1.7-3-3-4.2c-1.1-1.1-2.4-1.9-3.8-2.3c-0.7-0.2-1.3-0.3-2-0.4c0,0-0.1,0-0.1,0
			c0,0.1,0,0.1,0,0.2c0.4,1.2,0.7,2.3,1.1,3.5c0.6,1.9,1.2,3.8,1.8,5.7c0,0,0,0.1,0,0.1c0,0.1,0,0.1-0.1,0.1c0,0-0.1,0-0.1,0
			c-0.7,0.2-1.3,0.4-2,0.6c-0.2,0-0.2,0.1-0.2-0.1c-0.6-1.9-1.2-3.8-1.8-5.7c-0.4-1.2-0.7-2.3-1.1-3.5c0,0,0-0.1,0-0.1
			c-0.1,0-0.1,0.1-0.2,0.1c-0.6,0.4-1.1,0.9-1.5,1.4c-0.8,1.1-1.4,2.2-1.7,3.5c-0.2,0.9-0.4,1.7-0.4,2.6c-0.1,0.9,0,1.8,0,2.7
			c0,0.1,0,0.2,0,0.3c0,0.1,0,0.1-0.1,0.2c-0.2,0-0.4,0-0.6,0.1c-0.5,0.1-1,0.1-1.5,0.2c-0.1,0-0.1,0-0.1-0.1
			c-0.1-0.4-0.1-0.8-0.2-1.2c-0.1-0.7-0.1-1.3,0-2c0.1-2,0.6-3.8,1.6-5.6C8.3,6.1,8.3,6,8.4,5.9C8.4,5.9,8.4,5.9,8.4,5.9
			C8.4,5.8,8.5,5.8,8.4,5.9C8.4,5.8,8.4,5.8,8.4,5.9C8.4,5.8,8.4,5.8,8.4,5.9z"/>
		<path class="st0" d="M33.9,29.9c0.8,0.8,1.6,1.6,2.4,2.5c-0.1,0-0.1,0-0.2,0c-1,0-2.1,0-3.1,0c-0.1,0-0.2,0-0.3-0.1
			c-0.5-0.6-1-1.2-1.5-1.8c-0.1-0.1-0.2-0.1-0.3-0.1c-0.4,0-0.8,0-1.2,0c-0.1,0-0.1,0-0.1,0.1c0,0.6,0,1.2,0,1.7
			c0,0.2,0,0.2-0.2,0.2c-0.9,0-1.7,0-2.6,0c0,0,0,0,0,0c-0.1,0-0.1,0-0.1-0.1c0-1.1,0-2.1,0-3.2c0-0.7,0-1.4,0-2.1c0,0,0-0.1,0-0.1
			c0-0.1,0-0.1,0.1-0.1c0,0,0.1,0,0.1,0c2,0,3.9,0,5.9,0c0.6,0,1.1,0,1.7,0.2c0.3,0.1,0.5,0.2,0.7,0.3c0.5,0.4,0.6,1,0.3,1.6
			c-0.2,0.3-0.4,0.5-0.7,0.6C34.5,29.8,34.2,29.9,33.9,29.9z M30.5,27.9c-0.2,0-0.5,0-0.7,0c-0.1,0-0.1,0-0.1,0.1c0,0.3,0,0.7,0,1
			c0,0.1,0,0.1,0.1,0.1c0.5,0,0.9,0,1.4,0c0.2,0,0.4,0,0.6-0.1c0.1,0,0.3-0.1,0.4-0.2c0.2-0.2,0.2-0.6-0.1-0.7
			c-0.1,0-0.1-0.1-0.2-0.1C31.8,28,31.6,28,31.5,28C31.1,27.9,30.8,27.9,30.5,27.9z"/>
		<path class="st0" d="M0.3,32.3c0.3-0.2,0.6-0.4,0.9-0.6c0.1-0.1,0.3-0.2,0.4-0.3c0.1,0,0.1-0.1,0.2-0.1c0.7,0.1,1.5,0.2,2.2,0.3
			c0.6,0,1.1,0,1.6-0.1c0.1,0,0.2-0.1,0.3-0.1c0.1,0,0.1-0.1,0.2-0.1c0.1-0.1,0.1-0.2,0-0.4c-0.1-0.1-0.2-0.1-0.3-0.2
			c-0.3-0.1-0.5-0.2-0.8-0.3c-0.7-0.2-1.5-0.4-2.2-0.6c-0.3-0.1-0.5-0.2-0.8-0.3c-0.2-0.1-0.3-0.2-0.5-0.3c-0.5-0.4-0.5-1,0-1.4
			c0.3-0.3,0.7-0.4,1-0.5c0.5-0.1,1.1-0.2,1.6-0.3c1-0.1,2-0.1,3-0.1c0.5,0,1.1,0.1,1.6,0.1c0.5,0.1,0.9,0.1,1.4,0.2
			c0.1,0,0.1,0,0.2,0c0,0.1,0,0.1-0.1,0.1c-0.3,0.3-0.6,0.5-0.9,0.8c-0.1,0.1-0.1,0.1-0.2,0.1c-0.5-0.1-1.1-0.2-1.6-0.2
			c-0.5,0-0.9-0.1-1.4,0c-0.1,0-0.2,0-0.3,0.1c-0.1,0-0.1,0-0.2,0.1c-0.1,0.1-0.1,0.2,0,0.3c0.1,0.1,0.2,0.1,0.3,0.2
			c0.3,0.2,0.7,0.3,1,0.4c0.6,0.2,1.3,0.4,1.9,0.5c0.4,0.1,0.7,0.2,1.1,0.4c0.2,0.1,0.3,0.2,0.4,0.4c0.2,0.3,0.2,0.6,0.1,0.9
			c-0.1,0.2-0.3,0.4-0.6,0.5c-0.4,0.3-0.8,0.4-1.3,0.5c-0.6,0.2-1.2,0.3-1.8,0.3c-1,0.1-2,0.1-2.9,0c-0.7,0-1.5-0.1-2.2-0.2
			c-0.4,0-0.9-0.1-1.3-0.2C0.5,32.3,0.4,32.3,0.3,32.3z"/>
		<path class="st0" d="M20.6,29.7c0.1,0,0.1,0,0.2,0c0.8,0,1.6,0,2.3,0c0.2,0,0.2,0,0.2,0.2c0.3,0.8,0.5,1.6,0.8,2.4
			c0,0,0,0.1,0,0.1c0,0-0.1,0-0.1,0c-0.8,0-1.6,0-2.5,0c-0.1,0-0.2,0-0.2-0.1c0-0.1-0.1-0.1-0.1-0.1c-0.4,0.1-0.7,0.2-1.1,0.2
			c-0.8,0.1-1.7,0.2-2.6,0.1c-0.7-0.1-1.5-0.2-2.2-0.4c-0.5-0.1-1-0.3-1.4-0.6c-0.2-0.1-0.3-0.2-0.5-0.4c-0.8-0.8-0.8-2,0-2.7
			c0.3-0.3,0.6-0.5,0.9-0.6c0.6-0.3,1.2-0.5,1.9-0.6c0.8-0.2,1.6-0.3,2.4-0.3c0.8,0,1.6,0,2.4,0c0.5,0,0.9,0.1,1.3,0.2
			c0.1,0,0.1,0,0.1,0.1c0.1,0.4,0.2,0.7,0.3,1.1c-0.1,0-0.1,0-0.2,0c-0.5-0.1-1.1-0.1-1.6-0.2c-1-0.1-2-0.1-3,0.1
			c-0.4,0.1-0.8,0.2-1.1,0.5c-0.4,0.3-0.6,0.8-0.5,1.3c0,0.2,0.1,0.4,0.3,0.6c0.3,0.3,0.6,0.4,0.9,0.5c0.7,0.2,1.3,0.3,2,0.3
			c0.4,0,0.8-0.1,1.3-0.3c0.1,0,0.1-0.1,0.1-0.2c-0.1-0.4-0.2-0.7-0.3-1.1C20.6,29.9,20.6,29.8,20.6,29.7z"/>
		<path class="st0" d="M13.9,10.6c0,0.4-0.1,0.8-0.3,1.2c-0.3,0.6-1,0.8-1.5,0.7c-0.7-0.1-1.2-0.7-1.2-1.4c0-0.4,0.1-0.8,0.2-1.1
			C11.5,9.3,12,9,12.6,9.1c0.7,0.1,1.2,0.5,1.3,1.1C13.9,10.4,13.9,10.5,13.9,10.6z"/>
		<path class="st0" d="M17.8,8.4c0-0.5,0.2-0.9,0.7-1.2C18.6,7.1,18.8,7,19.1,7c0.4-0.1,0.7,0,1,0.2c0.5,0.3,0.8,0.8,0.9,1.3
			c0.2,0.8-0.4,1.7-1.2,1.8c-0.4,0-0.7,0-1-0.3c-0.5-0.3-0.8-0.8-0.9-1.4C17.8,8.6,17.8,8.5,17.8,8.4z"/>
		<path class="st0" d="M35.3,1.9c-0.5,0-0.9-0.4-0.9-0.9c0-0.5,0.4-0.9,0.9-0.9c0.5,0,0.9,0.4,0.9,0.9C36.2,1.4,35.8,1.9,35.3,1.9z
			 M34.6,1c0,0.4,0.3,0.7,0.7,0.7C35.7,1.8,36,1.4,36,1c0-0.4-0.3-0.7-0.7-0.7C34.9,0.3,34.6,0.6,34.6,1z"/>
		<path class="st0" d="M20,2.3C20,2.3,20,2.3,20,2.3C20,2.3,20,2.3,20,2.3C20,2.3,20,2.3,20,2.3C20,2.3,20,2.3,20,2.3z"/>
		<path class="st0" d="M35.5,1c0.2,0.1,0.2,0.2,0.2,0.3c0,0.1,0,0.1-0.1,0.1c-0.1,0-0.1,0-0.2-0.1c0-0.1,0-0.1,0-0.2
			c0,0,0-0.1-0.1-0.1c-0.1,0-0.2,0-0.2,0.1c0,0,0,0.1,0,0.1c0,0.1,0,0.1-0.1,0.1c-0.1,0-0.1,0-0.1-0.1c0-0.3,0-0.5,0-0.8
			c0-0.1,0-0.1,0.1-0.1c0.1,0,0.3,0,0.4,0c0.2,0,0.3,0.1,0.3,0.3C35.7,0.9,35.7,0.9,35.5,1z M35.1,0.8c0,0.1,0,0.1,0.1,0.1
			c0.1,0,0.2-0.1,0.2-0.1c0-0.1-0.1-0.1-0.2-0.1C35.1,0.7,35.1,0.7,35.1,0.8z"/>
	</g>
</g>
</svg>
