<?xml version="1.0" encoding="utf-8"?>
<!-- Generator: Adobe Illustrator 22.0.1, SVG Export Plug-In . SVG Version: 6.00 Build 0)  -->
<svg version="1.1" id="Layer_1" xmlns="http://www.w3.org/2000/svg" xmlns:xlink="http://www.w3.org/1999/xlink" x="0px" y="0px"
	 viewBox="0 0 23.8 15.1" style="enable-background:new 0 0 23.8 15.1;" xml:space="preserve">
<style type="text/css">
	.st0{fill:#4A4A4A;}
	.st1{fill:#F8F8F8;}
</style>
<title>Group 4</title>
<desc>Created with Sketch.</desc>
<g id="Symbols">
	<g id="Molecules_x2F_menu" transform="translate(-72.000000, -11.000000)">
		<g id="Group-3" transform="translate(72.000000, 11.000000)">
			<g id="Group-4">
				<g id="Star-Copy">
					<path class="st0" d="M9.2,10.9L5.7,9.1l-3.5,1.9l0.7-4L0,4.2l3.9-0.6L5.7,0l1.8,3.6l3.9,0.6L8.5,7L9.2,10.9z M1.6,4.7l2,2
						L3.2,9.5l2.5-1.3l2.5,1.3L7.7,6.7l2-2L6.9,4.3L5.7,1.7L4.4,4.3L1.6,4.7z"/>
				</g>
				<g id="Star-Copy-2">
					<path class="st0" d="M15,10l0.6-3.6l-2.7-2.6l3.8-0.5L18.3,0L20,3.3l3.8,0.5l-2.7,2.6l0.6,3.6l-3.4-1.7L15,10z M18.3,7.5
						l2.4,1.2l-0.5-2.5l1.9-1.8L19.5,4l-1.2-2.3L17.1,4l-2.6,0.4l1.9,1.8L16,8.7L18.3,7.5z"/>
				</g>
				<g id="Star">
					<polygon class="st1" points="12,12.1 7.6,14.4 8.4,9.5 4.9,6 9.8,5.3 12,0.9 14.1,5.3 19,6 15.5,9.5 16.3,14.4 					"/>
					<path class="st0" d="M16.8,15.1L12,12.5l-4.9,2.6L8,9.6L4.1,5.8L9.5,5L12,0l2.4,5l5.4,0.8l-3.9,3.9L16.8,15.1z M12,11.7
						l3.9,2.1l-0.7-4.3l3.1-3.1l-4.3-0.6l-1.9-4l-1.9,4L5.7,6.3l3.1,3.1l-0.7,4.3L12,11.7z"/>
				</g>
			</g>
		</g>
	</g>
</g>
</svg>
