<?xml version="1.0" encoding="utf-8"?>
<!-- Generator: Adobe Illustrator 23.0.1, SVG Export Plug-In . SVG Version: 6.00 Build 0)  -->
<svg version="1.1" id="Layer_1" xmlns="http://www.w3.org/2000/svg" xmlns:xlink="http://www.w3.org/1999/xlink" x="0px" y="0px"
	 viewBox="0 0 36 18" style="enable-background:new 0 0 36 18;" xml:space="preserve">
<style type="text/css">
	.st0{fill:#4B4A4A;}
	.st1{fill:#FFFFFF;}
	.st2{fill:#1D1D1B;}
</style>
<rect y="0" class="st0" width="17.7" height="18"/>
<g>
	<path class="st1" d="M5.26,16.65c-0.4-0.4-0.6-0.95-0.6-1.65c0-0.7,0.2-1.25,0.6-1.65c0.4-0.4,0.96-0.59,1.67-0.59
		c0.71,0,1.27,0.2,1.67,0.59c0.4,0.4,0.6,0.95,0.6,1.65c0,0.7-0.2,1.25-0.6,1.65c-0.4,0.4-0.96,0.59-1.67,0.59
		C6.21,17.24,5.66,17.04,5.26,16.65z M7.69,15.98c0.18-0.24,0.28-0.56,0.28-0.98c0-0.42-0.09-0.75-0.28-0.98
		c-0.18-0.24-0.44-0.35-0.77-0.35c-0.33,0-0.58,0.12-0.77,0.35C5.98,14.25,5.88,14.58,5.88,15c0,0.42,0.09,0.75,0.28,0.98
		c0.18,0.24,0.44,0.35,0.77,0.35C7.25,16.34,7.51,16.22,7.69,15.98z"/>
	<path class="st1" d="M9.89,16.74c-0.25-0.33-0.38-0.83-0.38-1.48v-2.41h1.22v2.42c0,0.34,0.05,0.59,0.16,0.75
		c0.11,0.16,0.28,0.23,0.52,0.23c0.28,0,0.51-0.11,0.69-0.33c0.18-0.22,0.27-0.49,0.27-0.81v-2.27h1.22V16l0,1.16h-1.17l0-0.75
		h-0.02c-0.1,0.25-0.27,0.46-0.53,0.61c-0.26,0.15-0.55,0.23-0.88,0.23C10.52,17.24,10.15,17.08,9.89,16.74z"/>
	<path class="st1" d="M14.22,13.9c0-0.49-0.01-0.84-0.03-1.05h1.16c0.02,0.22,0.03,0.48,0.03,0.76v0.09h0.03
		c0.11-0.28,0.31-0.51,0.59-0.68c0.28-0.17,0.61-0.25,0.98-0.25c0.07,0,0.16,0.01,0.27,0.03v0.96c-0.01-0.01-0.07-0.01-0.17-0.01
		c-0.29,0-0.57,0.07-0.82,0.22c-0.25,0.15-0.45,0.35-0.6,0.59c-0.15,0.25-0.22,0.51-0.22,0.8v1.8h-1.22V13.9z"/>
	<path class="st1" d="M4.72,16.33c-0.07,0.01-0.14,0.01-0.21,0.01c-0.24,0-0.42-0.05-0.53-0.16c-0.12-0.11-0.17-0.27-0.17-0.5v-1.92
		h0.92v-0.91H3.8v-1.77H3.76l-1.19,0.68v1.09H1.79v0.91h0.78v2.11c0,0.44,0.13,0.78,0.38,1.02c0.26,0.24,0.62,0.36,1.08,0.36
		c0.25,0,0.48-0.02,0.68-0.05V16.33z"/>
</g>
<g>
	<path class="st2" d="M23.21,12.99c-0.46,0.06-0.57,0.12-0.82,0.74c-0.18,0.45-1.13,2.74-1.46,3.59H20.7
		c-0.4-1.1-0.99-2.7-1.38-3.71c-0.19-0.51-0.31-0.57-0.73-0.62V12.8h1.74v0.19c-0.51,0.05-0.53,0.14-0.44,0.39
		c0.17,0.5,0.67,1.86,1.1,3c0.36-0.88,0.81-2,1.14-2.86c0.15-0.4,0.07-0.46-0.49-0.53V12.8h1.57V12.99z"/>
	<path class="st2" d="M26.91,16.16c-0.04,0.18-0.23,0.88-0.29,1.09h-3.32v-0.19c0.64-0.05,0.68-0.11,0.68-0.67v-2.7
		c0-0.61-0.08-0.64-0.59-0.69V12.8h2.09c0.64,0,0.91-0.01,0.99-0.01c0.01,0.17,0.03,0.68,0.06,1.05l-0.21,0.03
		c-0.06-0.23-0.13-0.38-0.21-0.52c-0.11-0.23-0.27-0.27-0.68-0.27h-0.65c-0.21,0-0.23,0.02-0.23,0.22v1.51h0.76
		c0.51,0,0.55-0.1,0.63-0.57h0.21v1.41h-0.21c-0.09-0.49-0.14-0.56-0.64-0.56h-0.75v1.36c0,0.48,0.15,0.52,0.49,0.53h0.64
		c0.42,0,0.49-0.06,0.64-0.24c0.13-0.14,0.27-0.42,0.37-0.63L26.91,16.16z"/>
	<path class="st2" d="M31.32,17.3c-0.09,0-0.16-0.01-0.25-0.01c-0.5-0.03-0.77-0.16-1.07-0.59c-0.25-0.35-0.5-0.78-0.72-1.13
		c-0.14-0.22-0.23-0.26-0.57-0.26h-0.24v1.07c0,0.58,0.08,0.62,0.62,0.67v0.19h-1.83v-0.19c0.57-0.06,0.62-0.09,0.62-0.67v-2.73
		c0-0.58-0.08-0.6-0.62-0.66V12.8h1.74c0.5,0,0.83,0.06,1.09,0.23c0.28,0.18,0.47,0.49,0.47,0.9c0,0.59-0.38,0.96-0.88,1.18
		c0.12,0.21,0.42,0.67,0.62,0.98c0.25,0.36,0.38,0.53,0.54,0.7c0.18,0.2,0.34,0.27,0.5,0.31L31.32,17.3z M28.79,15.07
		c0.36,0,0.58-0.05,0.75-0.2c0.27-0.2,0.38-0.47,0.38-0.84c0-0.73-0.49-1-1.01-1c-0.2,0-0.31,0.03-0.36,0.07
		c-0.06,0.05-0.08,0.12-0.08,0.29v1.68H28.79z"/>
	<path class="st2" d="M33.95,13.84c-0.12-0.45-0.31-0.9-0.95-0.9c-0.53,0-0.72,0.39-0.72,0.75c0,0.47,0.3,0.71,0.87,1.01
		c0.82,0.42,1.18,0.74,1.18,1.39c0,0.72-0.62,1.27-1.5,1.27c-0.41,0-0.77-0.12-1.05-0.23c-0.05-0.19-0.14-0.66-0.18-1.03l0.21-0.05
		c0.14,0.46,0.44,1.05,1.15,1.05c0.49,0,0.79-0.34,0.79-0.79c0-0.53-0.28-0.74-0.88-1.07c-0.72-0.39-1.12-0.72-1.12-1.35
		c0-0.61,0.51-1.18,1.41-1.18c0.38,0,0.76,0.1,0.9,0.13c0.03,0.25,0.05,0.52,0.11,0.96L33.95,13.84z"/>
</g>
</svg>
