<?xml version="1.0" encoding="utf-8"?>
<!-- Generator: Adobe Illustrator 22.0.1, SVG Export Plug-In . SVG Version: 6.00 Build 0)  -->
<svg version="1.1" id="Layer_1" xmlns="http://www.w3.org/2000/svg" xmlns:xlink="http://www.w3.org/1999/xlink" x="0px" y="0px"
	 viewBox="0 0 13 10" style="enable-background:new 0 0 13 10;" xml:space="preserve">
<style type="text/css">
	.st0{fill:#54B4CF;}
</style>
<title>truck</title>
<desc>Created with Sketch.</desc>
<g id="_x32_.-Design">
	<g id="Aanvraag-offerte" transform="translate(-493.000000, -1140.000000)">
		<g id="truck">
			<path id="path-1_1_" class="st0" d="M505,1140h-6.5c-0.5,0-1,0.4-1,0.9v0.9h-0.9c-0.3,0-0.5,0.1-0.7,0.3l-2,2
				c-0.2,0.2-0.3,0.4-0.3,0.7v2.1h-0.2c-0.3,0-0.5,0.2-0.5,0.5v0.3c0,0.3,0.2,0.5,0.5,0.5h0.8c0,1,0.9,1.9,2,1.9s2-0.8,2-1.9h2.6
				c0,1,0.9,1.9,2,1.9s2-0.8,2-1.9h0.8c0.3,0,0.5-0.2,0.5-0.5v-6.7C506,1140.4,505.6,1140,505,1140z M496,1149c-0.6,0-1-0.4-1-1
				s0.4-1,1-1s1,0.4,1,1S496.6,1149,496,1149z M498,1145h-3v-0.2l2.1-1.8h0.9V1145z M503,1149c-0.6,0-1-0.4-1-1s0.4-1,1-1s1,0.4,1,1
				S503.6,1149,503,1149z"/>
		</g>
	</g>
</g>
</svg>
