<?xml version="1.0" encoding="utf-8"?>
<!-- Generator: Adobe Illustrator 23.0.1, SVG Export Plug-In . SVG Version: 6.00 Build 0)  -->
<svg version="1.1" id="Layer_1" xmlns="http://www.w3.org/2000/svg" xmlns:xlink="http://www.w3.org/1999/xlink" x="0px" y="0px"
	 viewBox="0 0 32.2 35.89" style="enable-background:new 0 0 32.2 35.89;" xml:space="preserve">
<style type="text/css">
	.st0{fill:#4DDFF7;}
</style>
<title>HRC_icons_v0004</title>
<g>
	<path class="st0" d="M3.7,14.24c-2.04,0-3.7,1.66-3.7,3.7c0,2.04,1.66,3.7,3.7,3.7c2.04,0,3.7-1.66,3.7-3.7
		C7.4,15.9,5.74,14.24,3.7,14.24z M5.9,17.94c0,1.21-0.99,2.2-2.2,2.2c-1.21,0-2.2-0.99-2.2-2.2s0.99-2.2,2.2-2.2
		C4.91,15.74,5.9,16.73,5.9,17.94z"/>
	<path class="st0" d="M12.57,10.89c-0.29-0.29-0.77-0.29-1.06,0c-0.14,0.14-0.22,0.33-0.22,0.53c0,0.2,0.08,0.39,0.23,0.54
		c1.77,1.55,2.8,3.78,2.85,6.1c-0.19,2.25-1.2,4.35-2.84,5.92c-0.14,0.14-0.22,0.33-0.22,0.53c0,0.2,0.08,0.39,0.21,0.52
		c0.14,0.16,0.33,0.25,0.54,0.25c0.01,0,0.02,0,0.03,0h0c0.17-0.01,0.33-0.07,0.46-0.19c1.94-1.83,3.12-4.3,3.32-6.98
		C15.83,15.35,14.63,12.72,12.57,10.89z"/>
	<path class="st0" d="M18.1,5.83c-0.14-0.14-0.33-0.22-0.53-0.22c0,0,0,0,0,0c-0.2,0-0.39,0.08-0.53,0.22
		c-0.28,0.29-0.28,0.76,0,1.05c3.57,3.57,5.32,7.36,5.22,11.26c-0.16,5.91-4.6,10.29-5.1,10.76l-0.08,0.07
		c-0.14,0.14-0.22,0.33-0.22,0.53c0,0.2,0.08,0.39,0.21,0.51c0.14,0.17,0.34,0.26,0.56,0.26c0,0,0,0,0,0l0.03,0
		c0.16-0.02,0.31-0.08,0.43-0.2c0.56-0.51,5.49-5.19,5.68-11.9C23.88,13.86,21.98,9.71,18.1,5.83z"/>
	<path class="st0" d="M23.88,0.2c-0.14-0.13-0.34-0.2-0.52-0.2c-0.2,0.01-0.38,0.09-0.53,0.25c-0.28,0.29-0.26,0.76,0.03,1.03
		c5.37,5.37,8,11.08,7.84,16.97c-0.25,9.02-7.03,15.6-7.8,16.33c-0.17,0.15-0.26,0.36-0.26,0.58c0,0.41,0.34,0.74,0.75,0.74
		c0,0,0.01,0,0.01,0l0.02,0c0.19-0.02,0.37-0.11,0.47-0.23c0.08-0.07,8.03-7.17,8.32-17.4C32.37,11.96,29.59,5.89,23.88,0.2z"/>
</g>
</svg>
